<svg width="48" height="48" viewBox="0 0 48 48" fill="none" xmlns="http://www.w3.org/2000/svg">
<path fill-rule="evenodd" clip-rule="evenodd" d="M35.2812 22.0782L20.3125 41.0313C19.1562 42.5 17.2812 41.5469 17.9531 39.75L22.5469 27.4063H13.5312C12.8125 27.4063 12.2812 26.9063 12.2812 26.2188C12.2812 25.8282 12.4375 25.4844 12.7188 25.125L27.6875 6.15629C28.8438 4.68754 30.7031 5.64066 30.0469 7.43754L25.4531 19.7969H34.4688C35.1875 19.7969 35.7188 20.2969 35.7188 20.9844C35.7188 21.3594 35.5625 21.7032 35.2812 22.0782ZM26.7188 24.7188L22.5469 33.7032L31.0625 22.4844H21.2812L25.4375 13.4844L16.9375 24.7188H26.7188Z" fill="white"/>
</svg>
