<svg width="24" height="24" viewBox="0 0 24 24" fill="none" xmlns="http://www.w3.org/2000/svg">
<path fill-rule="evenodd" clip-rule="evenodd" d="M16.1719 20.8984C17.8984 20.8984 18.8203 19.9609 18.8203 18.2266V11.1406C18.8203 9.98438 18.6562 9.42969 17.9297 8.69531L14.0156 4.72656C13.3047 4.00781 12.7109 3.83594 11.6484 3.83594H7.82812C6.10156 3.83594 5.17969 4.76562 5.17969 6.5V18.2266C5.17969 19.9688 6.10156 20.8984 7.82812 20.8984H16.1719ZM15.9845 19.1092H8.01572C7.30479 19.1092 6.96885 18.742 6.96885 18.0701V6.66388C6.96885 5.992 7.30479 5.62482 8.01572 5.62482H11.211V9.65607C11.211 10.9061 11.8126 11.4998 13.047 11.4998H17.0313V18.0701C17.0313 18.742 16.6876 19.1092 15.9845 19.1092ZM13.1952 9.99202H16.8515L12.7187 5.80452V9.50764C12.7187 9.84358 12.8671 9.99202 13.1952 9.99202Z" fill="#E0E0FF" fill-opacity="0.6"/>
</svg>
