<svg width="48" height="48" viewBox="0 0 48 48" fill="none" xmlns="http://www.w3.org/2000/svg">
<path fill-rule="evenodd" clip-rule="evenodd" d="M13.9219 38.6719C13.9219 39.6094 13.1719 40.3438 12.25 40.3438C11.3281 40.3438 10.5781 39.5781 10.5781 38.6719V12.7656C10.5781 11.3438 11.2344 10.5469 12.375 10.0312C13.7031 9.42188 14.8906 9.10938 17.2031 9.10938C20.0279 9.10938 22.4701 9.83855 24.888 10.5604C27.2582 11.2681 29.6049 11.9688 32.2656 11.9688C33.6991 11.9688 34.7692 11.7611 35.6091 11.5981C36.1516 11.4929 36.5981 11.4062 36.9844 11.4062C38.1719 11.4062 39.0312 12.1875 39.0312 13.3594V28.6719C39.0312 30.1406 38.4062 31.1094 37.25 31.6406C36.0312 32.2188 34.7656 32.5469 32.3906 32.5469C29.6522 32.5469 27.2934 31.8381 24.9247 31.1262C22.5358 30.4084 20.1368 29.6875 17.3281 29.6875C15.7044 29.6875 14.5649 30.0372 14.0345 30.2C13.9933 30.2127 13.9557 30.2242 13.9219 30.2344V38.6719ZM25.4541 27.7867C27.7248 28.4687 29.9099 29.125 32.2969 29.125C34.1562 29.125 35.2344 28.625 35.5469 28.2188V14.9844C34.6719 15.2188 33.5156 15.3594 32.1562 15.3594C29.3166 15.3594 26.8616 14.6224 24.4511 13.8988C22.1266 13.201 19.8436 12.5156 17.2969 12.5156C15.4375 12.5156 14.375 13.0469 14.0469 13.4375V26.7188C14.8281 26.4375 16.0625 26.2812 17.4219 26.2812C20.442 26.2812 22.9981 27.049 25.4541 27.7867Z" fill="white"/>
</svg>
