<svg width="24" height="24" viewBox="0 0 24 24" fill="none" xmlns="http://www.w3.org/2000/svg">
<path fill-rule="evenodd" clip-rule="evenodd" d="M12.0001 2C9.28419 2 8.94365 2.01151 7.87704 2.06018C6.81266 2.10872 6.08572 2.27779 5.44965 2.52501C4.79206 2.78052 4.23439 3.12246 3.67842 3.67839C3.12249 4.23436 2.78055 4.79203 2.52504 5.44962C2.27782 6.08569 2.10876 6.81263 2.06021 7.87701C2.01154 8.94362 2.00003 9.28416 2.00003 12C2.00003 14.7158 2.01154 15.0564 2.06021 16.123C2.10876 17.1874 2.27782 17.9143 2.52504 18.5504C2.78055 19.208 3.12249 19.7656 3.67842 20.3216C4.23439 20.8775 4.79206 21.2195 5.44965 21.475C6.08572 21.7222 6.81266 21.8913 7.87704 21.9398C8.94365 21.9885 9.28419 22 12.0001 22C14.7159 22 15.0564 21.9885 16.123 21.9398C17.1874 21.8913 17.9143 21.7222 18.5504 21.475C19.208 21.2195 19.7657 20.8775 20.3216 20.3216C20.8776 19.7656 21.2195 19.208 21.4751 18.5504C21.7222 17.9143 21.8913 17.1874 21.9399 16.123C21.9885 15.0564 22 14.7158 22 12C22 9.28416 21.9885 8.94362 21.9399 7.87701C21.8913 6.81263 21.7222 6.08569 21.4751 5.44962C21.2195 4.79203 20.8776 4.23436 20.3216 3.67839C19.7657 3.12246 19.208 2.78052 18.5504 2.52501C17.9143 2.27779 17.1874 2.10872 16.123 2.06018C15.0564 2.01151 14.7159 2 12.0001 2ZM12.0001 3.8018C14.6701 3.8018 14.9864 3.812 16.0409 3.86011C17.0159 3.90457 17.5454 4.06748 17.8977 4.20443C18.3645 4.38583 18.6976 4.60253 19.0476 4.95248C19.3975 5.30239 19.6142 5.63551 19.7956 6.10229C19.9326 6.45466 20.0955 6.98415 20.1399 7.95914C20.188 9.0136 20.1982 9.32989 20.1982 12C20.1982 14.6701 20.188 14.9864 20.1399 16.0409C20.0955 17.0158 19.9326 17.5453 19.7956 17.8977C19.6142 18.3645 19.3975 18.6976 19.0476 19.0475C18.6976 19.3975 18.3645 19.6142 17.8977 19.7956C17.5454 19.9325 17.0159 20.0954 16.0409 20.1399C14.9866 20.188 14.6703 20.1982 12.0001 20.1982C9.32972 20.1982 9.01351 20.188 7.95917 20.1399C6.98418 20.0954 6.45469 19.9325 6.10232 19.7956C5.63554 19.6142 5.30242 19.3975 4.95251 19.0475C4.6026 18.6976 4.38586 18.3645 4.20446 17.8977C4.06751 17.5453 3.9046 17.0158 3.86014 16.0409C3.81203 14.9864 3.80183 14.6701 3.80183 12C3.80183 9.32989 3.81203 9.0136 3.86014 7.95914C3.9046 6.98415 4.06751 6.45466 4.20446 6.10229C4.38586 5.63551 4.60256 5.30239 4.95251 4.95248C5.30242 4.60253 5.63554 4.38583 6.10232 4.20443C6.45469 4.06748 6.98418 3.90457 7.95917 3.86011C9.01363 3.812 9.32992 3.8018 12.0001 3.8018ZM12.0001 15.3333C10.1591 15.3333 8.6667 13.841 8.6667 12C8.6667 10.159 10.1591 8.66667 12.0001 8.66667C13.841 8.66667 15.3334 10.159 15.3334 12C15.3334 13.841 13.841 15.3333 12.0001 15.3333ZM12.0001 6.86487C9.16396 6.86487 6.8649 9.16393 6.8649 12C6.8649 14.8361 9.16396 17.1351 12.0001 17.1351C14.8361 17.1351 17.1352 14.8361 17.1352 12C17.1352 9.16393 14.8361 6.86487 12.0001 6.86487ZM17.338 7.86197C18.0008 7.86197 18.5381 7.32474 18.5381 6.66199C18.5381 5.99924 18.0008 5.46197 17.338 5.46197C16.6753 5.46197 16.1381 5.99924 16.1381 6.66199C16.1381 7.32474 16.6753 7.86197 17.338 7.86197Z" fill="#E0E0FF" fill-opacity="0.6"/>
</svg>
