<svg width="20" height="20" viewBox="0 0 20 20" fill="none" xmlns="http://www.w3.org/2000/svg">
<path d="M8.66211 15.7354C9.05273 15.7354 9.35872 15.5791 9.57357 15.2601L15.6673 5.85905C15.8236 5.62467 15.8887 5.40983 15.8887 5.20801C15.8887 4.67415 15.498 4.29004 14.9512 4.29004C14.5736 4.29004 14.3457 4.42025 14.1178 4.78483L8.63607 13.4567L5.83659 9.92806C5.61523 9.66113 5.38737 9.53743 5.06185 9.53743C4.50846 9.53743 4.11133 9.92806 4.11133 10.4684C4.11133 10.7028 4.18945 10.9242 4.39128 11.1585L7.75716 15.2926C8.01107 15.5986 8.29102 15.7354 8.66211 15.7354Z" fill="white"/>
</svg>
