<svg width="339" height="339" viewBox="0 0 339 339" fill="none" xmlns="http://www.w3.org/2000/svg">
<g filter="url(#filter0_bddd_108_150)">
<mask id="path-1-inside-1_108_150" fill="white">
<path fill-rule="evenodd" clip-rule="evenodd" d="M22.5408 203.004C-0.401563 126.279 43.1976 45.4831 119.922 22.5408C196.647 -0.401556 277.443 43.1976 300.385 119.922C323.327 196.647 279.728 277.443 203.004 300.385C126.279 323.327 45.4831 279.728 22.5408 203.004ZM101.384 212.192C108.86 235.413 134.793 247.038 157.551 237.469C177.07 229.26 187.61 207.592 181.777 187.551C179.647 180.22 175.697 174.013 170.59 169.178L199.047 158.448L206.277 130.557L127.512 160.257C106.898 168.017 94.7312 191.523 101.384 212.192ZM149.875 215.061C139.286 220.629 126.468 214.941 123.737 203.464C121.878 195.643 125.721 187.309 132.935 183.515C143.525 177.947 156.343 183.635 159.073 195.112C160.936 202.944 157.09 211.267 149.875 215.061ZM90.1243 162.101L97.3764 134.202L217.316 88.9766L210.086 116.868L90.1243 162.101Z"/>
</mask>
<path fill-rule="evenodd" clip-rule="evenodd" d="M22.5408 203.004C-0.401563 126.279 43.1976 45.4831 119.922 22.5408C196.647 -0.401556 277.443 43.1976 300.385 119.922C323.327 196.647 279.728 277.443 203.004 300.385C126.279 323.327 45.4831 279.728 22.5408 203.004ZM101.384 212.192C108.86 235.413 134.793 247.038 157.551 237.469C177.07 229.26 187.61 207.592 181.777 187.551C179.647 180.22 175.697 174.013 170.59 169.178L199.047 158.448L206.277 130.557L127.512 160.257C106.898 168.017 94.7312 191.523 101.384 212.192ZM149.875 215.061C139.286 220.629 126.468 214.941 123.737 203.464C121.878 195.643 125.721 187.309 132.935 183.515C143.525 177.947 156.343 183.635 159.073 195.112C160.936 202.944 157.09 211.267 149.875 215.061ZM90.1243 162.101L97.3764 134.202L217.316 88.9766L210.086 116.868L90.1243 162.101Z" fill="url(#paint0_linear_108_150)"/>
<path d="M157.551 237.469L157.939 238.391L157.939 238.391L157.551 237.469ZM101.384 212.192L100.432 212.498L100.432 212.498L101.384 212.192ZM181.777 187.551L180.817 187.83L180.817 187.83L181.777 187.551ZM170.59 169.178L170.238 168.243L168.743 168.806L169.903 169.904L170.59 169.178ZM199.047 158.448L199.399 159.384L199.884 159.201L200.015 158.699L199.047 158.448ZM206.277 130.557L207.245 130.808L207.729 128.941L205.924 129.622L206.277 130.557ZM127.512 160.257L127.864 161.193L127.865 161.193L127.512 160.257ZM123.737 203.464L122.764 203.695L122.764 203.695L123.737 203.464ZM149.875 215.061L150.341 215.946L150.341 215.946L149.875 215.061ZM132.935 183.515L132.47 182.629L132.469 182.629L132.935 183.515ZM159.073 195.112L160.046 194.881L160.046 194.881L159.073 195.112ZM97.3764 134.202L97.0236 133.266L96.5389 133.449L96.4086 133.95L97.3764 134.202ZM90.1243 162.101L89.1564 161.85L88.6708 163.718L90.4771 163.037L90.1243 162.101ZM217.316 88.9766L218.284 89.2275L218.768 87.3603L216.963 88.0409L217.316 88.9766ZM210.086 116.868L210.439 117.803L210.924 117.62L211.054 117.118L210.086 116.868ZM119.636 21.5827C42.3819 44.6832 -1.51787 126.036 21.5827 203.29L23.4989 202.717C0.714744 126.522 44.0132 46.283 120.209 23.4989L119.636 21.5827ZM301.343 119.636C278.243 42.382 196.889 -1.51787 119.636 21.5827L120.209 23.4989C196.404 0.714752 276.643 44.0132 299.427 120.209L301.343 119.636ZM203.29 301.343C280.544 278.243 324.444 196.889 301.343 119.636L299.427 120.209C322.211 196.404 278.913 276.643 202.717 299.427L203.29 301.343ZM21.5827 203.29C44.6832 280.544 126.036 324.444 203.29 301.343L202.717 299.427C126.522 322.211 46.283 278.913 23.4989 202.717L21.5827 203.29ZM157.164 236.547C134.931 245.895 109.627 234.533 102.336 211.886L100.432 212.498C108.092 236.293 134.655 248.181 157.939 238.391L157.164 236.547ZM180.817 187.83C186.505 207.372 176.227 228.53 157.164 236.547L157.939 238.391C177.914 229.99 188.716 207.813 182.738 187.271L180.817 187.83ZM169.903 169.904C174.884 174.621 178.738 180.675 180.817 187.83L182.738 187.272C180.556 179.765 176.509 173.405 171.278 168.452L169.903 169.904ZM198.694 157.513L170.238 168.243L170.943 170.114L199.399 159.384L198.694 157.513ZM205.309 130.307L198.079 158.198L200.015 158.699L207.245 130.808L205.309 130.307ZM127.865 161.193L206.629 131.493L205.924 129.622L127.159 159.322L127.865 161.193ZM102.336 211.886C95.8577 191.759 107.715 168.779 127.864 161.193L127.159 159.321C106.082 167.256 93.6047 191.286 100.432 212.498L102.336 211.886ZM122.764 203.695C125.65 215.827 139.191 221.809 150.341 215.946L149.41 214.176C139.381 219.449 127.285 214.056 124.71 203.232L122.764 203.695ZM132.469 182.629C124.859 186.633 120.798 195.421 122.764 203.695L124.71 203.232C122.959 195.865 126.582 187.986 133.4 184.4L132.469 182.629ZM160.046 194.881C157.16 182.749 143.62 176.767 132.47 182.629L133.4 184.4C143.429 179.127 155.525 184.52 158.1 195.344L160.046 194.881ZM150.341 215.946C157.951 211.943 162.017 203.166 160.046 194.881L158.1 195.344C159.855 202.722 156.229 210.59 149.41 214.176L150.341 215.946ZM96.4086 133.95L89.1564 161.85L91.0921 162.353L98.3443 134.454L96.4086 133.95ZM216.963 88.0409L97.0236 133.266L97.7293 135.138L217.669 89.9123L216.963 88.0409ZM211.054 117.118L218.284 89.2275L216.348 88.7256L209.118 116.617L211.054 117.118ZM90.4771 163.037L210.439 117.803L209.733 115.932L89.7714 161.166L90.4771 163.037Z" fill="#F5F7FA" fill-opacity="0.06" mask="url(#path-1-inside-1_108_150)"/>
</g>
<defs>
<filter id="filter0_bddd_108_150" x="-92.3065" y="-92.3065" width="507.539" height="507.539" filterUnits="userSpaceOnUse" color-interpolation-filters="sRGB">
<feFlood flood-opacity="0" result="BackgroundImageFix"/>
<feGaussianBlur in="BackgroundImage" stdDeviation="54.3656"/>
<feComposite in2="SourceAlpha" operator="in" result="effect1_backgroundBlur_108_150"/>
<feColorMatrix in="SourceAlpha" type="matrix" values="0 0 0 0 0 0 0 0 0 0 0 0 0 0 0 0 0 0 127 0" result="hardAlpha"/>
<feOffset dx="8" dy="8"/>
<feGaussianBlur stdDeviation="12"/>
<feColorMatrix type="matrix" values="0 0 0 0 0.0352941 0 0 0 0 0.0509804 0 0 0 0 0.0784314 0 0 0 0.4 0"/>
<feBlend mode="normal" in2="effect1_backgroundBlur_108_150" result="effect2_dropShadow_108_150"/>
<feColorMatrix in="SourceAlpha" type="matrix" values="0 0 0 0 0 0 0 0 0 0 0 0 0 0 0 0 0 0 127 0" result="hardAlpha"/>
<feOffset dx="-4" dy="-4"/>
<feGaussianBlur stdDeviation="4"/>
<feColorMatrix type="matrix" values="0 0 0 0 0.878431 0 0 0 0 0.878431 0 0 0 0 1 0 0 0 0.04 0"/>
<feBlend mode="normal" in2="effect2_dropShadow_108_150" result="effect3_dropShadow_108_150"/>
<feColorMatrix in="SourceAlpha" type="matrix" values="0 0 0 0 0 0 0 0 0 0 0 0 0 0 0 0 0 0 127 0" result="hardAlpha"/>
<feOffset dy="1"/>
<feGaussianBlur stdDeviation="0.5"/>
<feColorMatrix type="matrix" values="0 0 0 0 0.0352941 0 0 0 0 0.0509804 0 0 0 0 0.0784314 0 0 0 0.4 0"/>
<feBlend mode="normal" in2="effect3_dropShadow_108_150" result="effect4_dropShadow_108_150"/>
<feBlend mode="normal" in="SourceGraphic" in2="effect4_dropShadow_108_150" result="shape"/>
</filter>
<linearGradient id="paint0_linear_108_150" x1="-116.381" y1="244.544" x2="244.544" y2="439.307" gradientUnits="userSpaceOnUse">
<stop stop-color="#F5F7FA" stop-opacity="0.12"/>
<stop offset="0.521392" stop-color="#F5F7FA" stop-opacity="0.06"/>
<stop offset="1" stop-color="#F5F7FA" stop-opacity="0.01"/>
</linearGradient>
</defs>
</svg>
