<svg width="48" height="48" viewBox="0 0 48 48" fill="none" xmlns="http://www.w3.org/2000/svg">
<path fill-rule="evenodd" clip-rule="evenodd" d="M40.3281 24.7188C40.3281 33.7344 33.0156 41.0469 24 41.0469C14.9844 41.0469 7.67188 33.7344 7.67188 24.7188C7.67188 20.9219 9.03125 17.3906 11.2656 14.6094C12.0625 13.5312 13.3281 13.4531 14.0938 14.2031C14.8906 14.9844 14.75 15.9219 14.0781 16.9062C12.375 19.0469 11.3594 21.7969 11.3438 24.7188C11.3281 31.7188 16.9688 37.3906 24 37.3906C31.0469 37.3906 36.6562 31.7188 36.6562 24.7188C36.6562 18.125 31.7344 12.7344 25.3125 12.0625V15.5781C25.3125 16.4688 24.6875 17.1406 23.7969 17.1406C22.9062 17.1406 22.2812 16.4688 22.2812 15.5781V10.0625C22.2812 9.03125 22.9375 8.39062 24.0156 8.39062C33.0312 8.39062 40.3281 15.7188 40.3281 24.7188ZM25.9844 22.9692C27.5781 24.0161 27.8594 25.9536 26.5156 27.3442C25.1562 28.6724 23.2187 28.3755 22.1719 26.7817L16.9687 19.1255C16.2656 18.063 17.2656 17.063 18.3281 17.7661L25.9844 22.9692Z" fill="white"/>
</svg>
