<svg width="24" height="24" viewBox="0 0 24 24" fill="none" xmlns="http://www.w3.org/2000/svg">
<path d="M8.28034 20.1261C15.8243 20.1261 19.9523 13.8701 19.9523 8.45412C19.9523 8.27812 19.9523 8.10212 19.9443 7.92612C20.7443 7.35012 21.4403 6.62212 21.9923 5.79812C21.2563 6.12612 20.4643 6.34212 19.6323 6.44612C20.4803 5.94212 21.1283 5.13412 21.4403 4.17412C20.6483 4.64612 19.7683 4.98212 18.8323 5.16612C18.0803 4.36612 17.0163 3.87012 15.8403 3.87012C13.5763 3.87012 11.7363 5.71012 11.7363 7.97412C11.7363 8.29412 11.7763 8.60612 11.8403 8.91012C8.43234 8.74212 5.40834 7.10212 3.38434 4.62212C3.03234 5.23012 2.83234 5.93412 2.83234 6.68612C2.83234 8.11012 3.56034 9.36612 4.65634 10.1021C3.98434 10.0781 3.35234 9.89412 2.80034 9.59012C2.80034 9.60612 2.80034 9.62212 2.80034 9.64612C2.80034 11.6301 4.21634 13.2941 6.08834 13.6701C5.74434 13.7661 5.38434 13.8141 5.00834 13.8141C4.74434 13.8141 4.48834 13.7901 4.24034 13.7421C4.76034 15.3741 6.28034 16.5581 8.07234 16.5901C6.66434 17.6941 4.89634 18.3501 2.97634 18.3501C2.64834 18.3501 2.32034 18.3341 2.00034 18.2941C3.80834 19.4461 5.96834 20.1261 8.28034 20.1261Z" fill="#E0E0FF" fill-opacity="0.6"/>
</svg>
