<svg width="32" height="32" viewBox="0 0 32 32" fill="none" xmlns="http://www.w3.org/2000/svg">
<path fill-rule="evenodd" clip-rule="evenodd" d="M16 29.3334C23.3638 29.3334 29.3333 23.3638 29.3333 16C29.3333 8.63622 23.3638 2.66669 16 2.66669C8.6362 2.66669 2.66667 8.63622 2.66667 16C2.66667 23.3638 8.6362 29.3334 16 29.3334ZM11.5953 14.7787C10.2596 15.3618 8.88724 15.961 7.63235 16.6522L7.63226 16.6523C6.97699 17.1321 7.84798 17.4714 8.66502 17.7898C8.79491 17.8404 8.92344 17.8904 9.04426 17.9405C9.14479 17.9714 9.24704 18.0039 9.35064 18.0369C10.2593 18.3264 11.2726 18.6493 12.1548 18.1636C13.604 17.3312 14.9716 16.3687 16.3382 15.407C16.786 15.0919 17.2336 14.7769 17.6839 14.4665C17.705 14.453 17.7288 14.4376 17.7548 14.4207C18.1385 14.172 19.0013 13.6128 18.6822 14.3834C17.9275 15.2087 17.1191 15.9393 16.3063 16.6739C15.7586 17.169 15.2088 17.6659 14.6722 18.1947C14.2047 18.5745 13.7194 19.3383 14.2428 19.8701C15.4483 20.714 16.6726 21.5374 17.8962 22.3604C18.2944 22.6282 18.6925 22.896 19.0899 23.1644C19.7633 23.7021 20.8158 23.2672 20.9639 22.427C21.0297 22.0405 21.0958 21.654 21.162 21.2674C21.5273 19.1315 21.8927 16.9949 22.2156 14.852C22.2594 14.5159 22.3092 14.1797 22.3589 13.8434C22.4795 13.0284 22.6003 12.2123 22.638 11.3929C22.5408 10.5751 21.5493 10.7549 20.9975 10.9388C18.1612 12.018 15.3533 13.1772 12.5566 14.3569C12.2397 14.4973 11.9186 14.6375 11.5953 14.7787Z" fill="white"/>
</svg>
