<svg width="32" height="32" viewBox="0 0 32 32" fill="none" xmlns="http://www.w3.org/2000/svg">
<path fill-rule="evenodd" clip-rule="evenodd" d="M3.53365 1.62442C7.13102 6.01796 12.6738 12.8489 12.9517 13.2215C13.1832 13.532 13.0906 13.827 12.7046 14.0443C12.4885 14.1685 12.0407 14.2927 11.8246 14.2927C11.5776 14.2927 11.2842 14.1685 11.0835 13.9667C10.9445 13.827 10.3424 12.9421 8.98374 10.8152C7.94931 9.18504 7.06926 7.83438 7.05382 7.81885C6.99207 7.7878 6.99207 7.7878 8.87567 11.1722C10.0645 13.2991 10.4505 14.0599 10.4505 14.153C10.4505 14.3548 10.3887 14.4635 10.1417 14.743C9.72483 15.2087 9.53956 15.7365 9.40061 16.8388C9.24621 18.0653 8.82935 18.9347 7.64052 20.4095C6.94575 21.2789 6.83767 21.4342 6.66784 21.7913C6.45169 22.226 6.38993 22.4743 6.35905 23.0332C6.32817 23.6232 6.38993 23.9958 6.55976 24.5547C6.71416 25.0515 6.88399 25.3775 7.30085 26.014C7.65596 26.5729 7.87211 26.9921 7.87211 27.1473C7.87211 27.2715 7.90299 27.2715 8.45881 27.1473C9.78659 26.8368 10.8828 26.309 11.4849 25.657C11.8555 25.2533 11.9481 25.036 11.9481 24.4771C11.9481 24.12 11.9327 24.0424 11.84 23.825C11.6856 23.4835 11.3923 23.204 10.7593 22.7693C9.92554 22.1949 9.57044 21.7292 9.4778 21.1082C9.40061 20.5803 9.49324 20.2232 9.95642 19.2452C10.435 18.2361 10.5586 17.8169 10.6358 16.7922C10.6821 16.1402 10.7593 15.8763 10.9445 15.6744C11.1453 15.4571 11.3151 15.3795 11.7937 15.3174C12.5811 15.2087 13.0906 15.0069 13.492 14.6188C13.8471 14.2927 14.0015 13.9667 14.017 13.4854L14.0324 13.1284L13.8317 12.911C13.1061 12.0727 3.05503 0.956848 3.00871 0.956848C2.99928 0.956848 3.08779 1.06692 3.22497 1.23751L3.22497 1.23751C3.31236 1.34619 3.4195 1.47942 3.53365 1.62442ZM8.27353 23.7008C8.44337 23.4058 8.35073 23.0332 8.07282 22.8469C7.81035 22.6762 7.40893 22.7538 7.40893 22.9867C7.40893 23.0488 7.43981 23.1109 7.53244 23.1419C7.6714 23.2195 7.68684 23.2972 7.57876 23.4679C7.47069 23.6387 7.47069 23.794 7.60964 23.9026C7.82579 24.0734 8.11914 23.9803 8.27353 23.7008ZM13.1986 7.80333C12.8744 7.75675 12.859 7.74123 13.0134 7.7257C13.3067 7.67913 13.9861 7.74123 14.4647 7.8499C15.5763 8.11382 16.5799 8.79692 17.6452 9.99234L17.9231 10.3184L18.3245 10.2563C20.0383 9.97681 21.7984 10.1942 23.2651 10.8773C23.6665 11.0636 24.2995 11.4361 24.3767 11.5293C24.4076 11.5603 24.4539 11.7622 24.4848 11.964C24.5929 12.6937 24.5466 13.237 24.315 13.6562C24.1915 13.8891 24.1915 13.9512 24.2687 14.153C24.3304 14.3083 24.5157 14.4169 24.6855 14.4169C25.0561 14.4169 25.4421 13.827 25.6273 13.0042L25.7045 12.6781L25.8435 12.8334C26.6309 13.7183 27.2485 14.9448 27.3411 15.8142L27.372 16.047L27.233 15.8452C27.0014 15.4881 26.7853 15.2553 26.4919 15.0534C25.967 14.6964 25.4112 14.5877 23.9444 14.5101C22.6167 14.4325 21.8601 14.3238 21.119 14.0754C19.853 13.6562 19.2046 13.1128 17.7069 11.1101C17.043 10.2252 16.6262 9.74394 16.2093 9.34029C15.2984 8.45537 14.3875 7.98962 13.1986 7.80333ZM24.701 9.77499C24.7319 9.18504 24.8091 8.79692 24.9789 8.43985C25.0406 8.30012 25.1024 8.17592 25.1178 8.17592C25.1333 8.17592 25.1024 8.2846 25.0561 8.4088C24.9326 8.75035 24.9171 9.23162 24.9943 9.77499C25.1024 10.4736 25.1487 10.5668 25.8898 11.3275C26.2295 11.6846 26.6309 12.1348 26.7853 12.3211L27.0478 12.6626L26.7853 12.4142C26.4611 12.1037 25.72 11.5138 25.5501 11.4362C25.4421 11.3741 25.4266 11.3741 25.3494 11.4517C25.2877 11.5138 25.2722 11.6069 25.2722 12.0571C25.2568 12.7558 25.1642 13.1905 24.9326 13.6407C24.8091 13.8736 24.7936 13.827 24.9017 13.5631C24.9789 13.3612 24.9943 13.2681 24.9943 12.6005C24.9943 11.2499 24.8399 10.9238 23.8981 10.3805C23.6665 10.2407 23.2651 10.0389 23.0335 9.93024C22.7865 9.82156 22.6012 9.72841 22.6167 9.72841C22.6476 9.69736 23.5585 9.96129 23.9136 10.1165C24.454 10.3339 24.5466 10.3494 24.6083 10.3339C24.6547 10.2873 24.6855 10.1631 24.701 9.77499ZM12.859 8.75035C12.7664 9.79051 13.1832 11.1878 13.8317 12.0882C14.3412 12.7868 15.1286 13.3302 15.7153 13.3923C16.1013 13.4233 16.2094 13.2991 16.0395 13.0507C15.7925 12.7092 15.4991 12.1658 15.4219 11.9329C15.3756 11.7932 15.2675 11.3585 15.1904 10.9859C14.9279 9.71289 14.65 9.20057 14.0324 8.82797C13.8008 8.68825 13.3222 8.50195 13.0443 8.45537L12.8899 8.42432L12.859 8.75035ZM23.9136 18.8415C20.8566 17.5995 19.7758 16.5283 19.7758 14.7119C19.7758 14.448 19.7913 14.2306 19.7913 14.2306C19.8015 14.2306 19.853 14.272 19.9273 14.3318L19.9273 14.3318C19.9645 14.3617 20.0074 14.3962 20.0537 14.4325C20.6713 14.9293 21.3661 15.1466 23.296 15.426C24.4231 15.5968 25.0715 15.721 25.6582 15.9228C27.5264 16.5438 28.6843 17.8169 28.9622 19.5401C29.0394 20.0369 28.9931 20.984 28.8696 21.4808C28.7615 21.8689 28.4527 22.583 28.3755 22.5985C28.3601 22.5985 28.3292 22.5209 28.3292 22.3967C28.2983 21.7447 27.9741 21.1237 27.4337 20.6424C26.7853 20.0835 25.9516 19.6643 23.9136 18.8415ZM21.5977 18.7018C21.644 18.826 21.7212 19.121 21.7521 19.3538C21.9991 20.8132 21.2426 22.0086 19.7141 22.4899C19.5597 22.552 18.9421 22.6762 18.34 22.7693C17.1203 22.9867 16.5645 23.1264 16.0241 23.3903C15.6381 23.5766 15.1595 23.8561 15.1903 23.8871C15.2058 23.9026 15.2984 23.8716 15.3911 23.8405C16.0858 23.5921 16.8578 23.4679 18.0158 23.4058C18.4034 23.3799 18.8344 23.343 19.0732 23.3226L19.1891 23.3127C20.2236 23.173 20.9492 22.8625 21.505 22.2881C21.8138 21.962 21.9991 21.6671 22.1535 21.2479C22.2461 20.984 22.2616 20.8753 22.2616 20.4095V20.4095C22.2616 19.9283 22.2616 19.8351 22.1535 19.5401C22.0145 19.152 21.8602 18.8726 21.6594 18.6397L21.5205 18.4689L21.5977 18.7018ZM23.157 21.8534C22.7556 20.9684 22.663 20.1301 22.8791 19.3383C22.91 19.2607 22.9409 19.1831 22.9718 19.1831C23.0026 19.1831 23.0953 19.2296 23.1879 19.2917C23.3732 19.4159 23.7592 19.6333 24.7473 20.1767C25.9979 20.8598 26.7081 21.3876 27.2022 21.9931C27.6345 22.5209 27.8969 23.1264 28.0204 23.8716C28.0976 24.2908 28.0513 25.2999 27.9432 25.7191C27.6036 27.0387 26.8316 28.0944 25.7045 28.6998C25.5347 28.793 25.3957 28.8551 25.3803 28.8551C25.3649 28.8551 25.4266 28.6998 25.5193 28.5135C25.8898 27.7218 25.9361 26.961 25.6582 26.1072C25.4884 25.5793 25.1333 24.9428 24.4231 23.8716C23.5739 22.6296 23.3732 22.3036 23.157 21.8534ZM15.4991 24.741C14.2022 24.9583 12.7972 25.6414 11.6547 26.604L11.3305 26.9145L11.6238 26.961C13.1677 27.1939 13.5846 27.4113 14.6654 28.5291C15.2829 29.1656 15.4991 29.3053 16.0086 29.445C16.7651 29.6468 17.5062 29.2898 17.7687 28.6067C17.8767 28.2962 17.8613 27.7994 17.7378 27.551C17.429 26.9455 16.5181 26.7592 16.0858 27.1939C15.7307 27.551 15.8387 28.1099 16.2865 28.203C16.3283 28.21 16.3512 28.2139 16.3525 28.2103C16.354 28.2059 16.3234 28.1906 16.2557 28.1565L16.2557 28.1565L16.2556 28.1565C16.0549 28.0633 15.9623 27.9391 15.9623 27.7373C15.9468 27.256 16.4872 27.0076 16.9813 27.225C17.3518 27.3957 17.4908 27.6131 17.4908 27.9857C17.4908 28.5601 16.9967 29.0103 16.4254 28.9327C16.1167 28.8861 15.7461 28.6998 15.5454 28.467C15.0513 27.9081 15.2366 26.9921 15.9468 26.6505C16.4872 26.3866 17.1974 26.4642 17.7532 26.8213C18.3862 27.2405 18.6641 27.6131 19.2045 28.8706C19.3898 29.2898 19.6059 29.74 19.714 29.8952C20.2235 30.6715 20.8565 31.0596 21.5976 31.0596C22.0145 31.0596 22.3233 30.9975 22.7093 30.7957C22.9872 30.656 23.404 30.3765 23.3731 30.3455C23.3731 30.3332 23.2964 30.3596 23.1959 30.3941L23.1959 30.3941L23.1959 30.3941C23.1688 30.4034 23.1401 30.4132 23.1107 30.4231C22.2924 30.7336 21.4587 30.7181 20.98 30.361C20.6713 30.1281 20.4242 29.6934 20.3007 29.1345L20.2856 29.046C20.2563 28.8756 20.1963 28.5265 20.1463 28.1875C19.9765 27.1163 19.8067 26.635 19.4361 26.0761C19.0501 25.5017 18.309 25.036 17.4908 24.8186C16.9813 24.6789 16.0549 24.6478 15.4991 24.741ZM13.6927 16.4507C13.8008 16.047 14.1559 15.6434 14.5265 15.5347C14.7735 15.4571 15.2521 15.5037 15.4837 15.6279C15.9314 15.8607 16.2557 16.3731 16.1785 16.7457C16.1013 17.1959 15.3756 17.5685 14.5265 17.5685C14.0941 17.5685 13.9398 17.5064 13.7699 17.289C13.6618 17.1493 13.631 16.6991 13.6927 16.4507ZM15.3602 15.7831C15.5918 15.9228 15.6381 16.1247 15.5146 16.311C15.4219 16.4352 15.144 16.5594 14.9433 16.5594C14.6345 16.5594 14.3103 16.342 14.3103 16.1402C14.3103 15.7365 14.9433 15.5192 15.3602 15.7831Z" fill="white"/>
</svg>
