<svg xmlns="http://www.w3.org/2000/svg" width="24" height="24" viewBox="0 0 24 24">
    <g fill="none" fill-rule="evenodd">
        <g>
            <g>
                <g>
                    <g>
                        <g>
                            <g>
                                <path d="M0 0L24 0 24 24 0 24z" transform="translate(-165 -448) translate(0 196) translate(0 120) translate(165 72) translate(0 60) matrix(-1 0 0 1 24 0)"/>
                                <path fill="#EC601A" fill-rule="nonzero" d="M5 13h11.17l-4.88 4.88c-.39.39-.39 1.03 0 1.42.39.39 1.02.39 1.41 0l6.59-6.59c.39-.39.39-1.02 0-1.41l-6.58-6.6c-.39-.39-1.02-.39-1.41 0-.39.39-.39 1.02 0 1.41L16.17 11H5c-.55 0-1 .45-1 1s.45 1 1 1z" transform="translate(-165 -448) translate(0 196) translate(0 120) translate(165 72) translate(0 60) matrix(-1 0 0 1 24 0)"/>
                            </g>
                        </g>
                    </g>
                </g>
            </g>
        </g>
    </g>
</svg>
