<svg xmlns="http://www.w3.org/2000/svg" xmlns:xlink="http://www.w3.org/1999/xlink" width="24" height="24" viewBox="0 0 24 24">
    <defs>
        <path id="prefix__a" d="M18 0H2C.89 0 .01.89.01 2L0 14c0 1.11.89 2 2 2h16c1.11 0 2-.89 2-2V2c0-1.11-.89-2-2-2zm-1 14H3c-.55 0-1-.45-1-1V7h16v6c0 .55-.45 1-1 1zm1-9H2V2h16v3z"/>
    </defs>
    <g fill="none" fill-rule="evenodd">
        <path d="M0 0L24 0 24 24 0 24z"/>
        <g transform="translate(2 4)">
            <mask id="prefix__b" fill="#fff">
                <use xlink:href="#prefix__a"/>
            </mask>
            <use fill="#141029" fill-rule="nonzero" xlink:href="#prefix__a"/>
            <g fill="#E0E0FF" mask="url(#prefix__b)">
                <path d="M0 0H24V24H0z" transform="translate(-2 -4)"/>
            </g>
        </g>
    </g>
</svg>
