<svg xmlns="http://www.w3.org/2000/svg" width="24" height="24" viewBox="0 0 24 24">
    <g fill="none" fill-rule="evenodd">
        <g>
            <g>
                <g>
                    <g>
                        <path d="M0 0H24V24H0z" transform="translate(-201 -512) translate(165 476) translate(24 24) translate(12 12)"/>
                        <path fill="#FF5E00" fill-rule="nonzero" d="M18.156 16.813c.422 0 .797-.313.797-.79 0-.468-.375-.78-.797-.78h-8.86c-.32 0-.523-.227-.57-.563l-.117-.805h9.641c1.242 0 1.906-.742 2.086-1.992l.555-3.735c.015-.101.039-.242.039-.343 0-.516-.352-.875-.985-.875H7.61l-.101-.735c-.11-.742-.43-1.117-1.36-1.117H3.531c-.46 0-.86.399-.86.867 0 .477.4.867.86.867h2.29l1.171 8.024c.188 1.234.844 1.976 2.086 1.976h9.078zm-9.773-4.508L7.836 8.5H19.07l-.453 3.25c-.047.344-.226.547-.555.547l-9.68.008zm1.351 8.515c.805 0 1.446-.633 1.446-1.437 0-.797-.64-1.438-1.446-1.438-.789 0-1.437.64-1.437 1.438 0 .805.648 1.437 1.437 1.437zm7.149 0c.797 0 1.437-.633 1.437-1.437 0-.797-.64-1.438-1.437-1.438s-1.445.64-1.445 1.438c0 .805.648 1.437 1.445 1.437z" transform="translate(-201 -512) translate(165 476) translate(24 24) translate(12 12)"/>
                    </g>
                </g>
            </g>
        </g>
    </g>
</svg>
