<svg xmlns="http://www.w3.org/2000/svg" xmlns:xlink="http://www.w3.org/1999/xlink" width="24" height="24" viewBox="0 0 24 24">
    <defs>
        <path id="prefix__a" d="M17 8c.552 0 1 .448 1 1v8c0 .552-.448 1-1 1h-6c-.552 0-1-.448-1-1V9c0-.552.448-1 1-1h6zM7 12c.552 0 1 .448 1 1v4c0 .552-.448 1-1 1H1c-.552 0-1-.448-1-1v-4c0-.552.448-1 1-1h6zm9-2h-4v6h4v-6zM6 14H2v2h4v-2zM7 0c.552 0 1 .448 1 1v8c0 .552-.448 1-1 1H1c-.552 0-1-.448-1-1V1c0-.552.448-1 1-1h6zM6 2H2v6h4V2zm11-2c.552 0 1 .448 1 1v4c0 .552-.448 1-1 1h-6c-.552 0-1-.448-1-1V1c0-.552.448-1 1-1h6zm-1 2h-4v2h4V2z"/>
    </defs>
    <g fill="none" fill-rule="evenodd">
        <path d="M0 0L24 0 24 24 0 24z"/>
        <g transform="translate(3 3)">
            <mask id="prefix__b" fill="#fff">
                <use xlink:href="#prefix__a"/>
            </mask>
            <use fill="#141029" fill-rule="nonzero" xlink:href="#prefix__a"/>
            <g fill="#E0E0FF" mask="url(#prefix__b)">
                <path d="M0 0H24V24H0z" transform="translate(-3 -3)"/>
            </g>
        </g>
    </g>
</svg>
