<svg xmlns="http://www.w3.org/2000/svg" width="18" height="22" viewBox="0 0 18 22">
    <g fill="none" fill-rule="evenodd">
        <path d="M0 0L24 0 24 24 0 24z" transform="rotate(-90 10 13)"/>
        <path fill="#9C42F5" fill-rule="nonzero" d="M12.354 15.646l2.792-2.792a.5.5 0 00-.353-.854H13V4a1 1 0 00-2 0v8H9.207a.5.5 0 00-.353.854l2.792 2.792a.5.5 0 00.708 0zM21 3h-5.005a.995.995 0 000 1.99H20.7a.3.3 0 01.3.3v13.43a.3.3 0 01-.3.3H3.3a.3.3 0 01-.3-.3V5.29a.3.3 0 01.3-.3h4.705a.995.995 0 100-1.99H3c-1.1 0-2 .9-2 2v14c0 1.1.9 2 2 2h18c1.1 0 2-.9 2-2V5c0-1.1-.9-2-2-2z" transform="rotate(-90 10 13)"/>
    </g>
</svg>
