<svg xmlns="http://www.w3.org/2000/svg" width="15" height="15" viewBox="0 0 15 15">
    <g fill="none" fill-rule="evenodd" opacity=".6">
        <g>
            <g>
                <g>
                    <g>
                        <g>
                            <path d="M15 15L0 15 0 0 15 0z" opacity=".87" transform="translate(-49 -1077) translate(16 545) translate(0 515) translate(16 12) translate(17 5)"/>
                            <path fill="#141029" fill-rule="nonzero" d="M7.49 10.861l-1.73-1.73c-.175-.174-.456-.174-.63 0-.173.173-.173.454 0 .628l2.048 2.048c.174.174.455.174.629 0l2.047-2.048c.174-.174.174-.455 0-.629-.174-.169-.46-.173-.633 0L7.49 10.861z" transform="translate(-49 -1077) translate(16 545) translate(0 515) translate(16 12) translate(17 5)"/>
                            <path fill="#141029" fill-rule="nonzero" d="M9.22 3.13L7.49 4.861l-1.73-1.73c-.175-.174-.456-.174-.63 0-.173.173-.173.454 0 .628l2.048 2.048c.174.174.455.174.629 0l2.047-2.048c.174-.174.174-.455 0-.629-.174-.169-.46-.173-.633 0z" transform="translate(-49 -1077) translate(16 545) translate(0 515) translate(16 12) translate(17 5) rotate(180 7.492 4.469)"/>
                        </g>
                    </g>
                </g>
            </g>
        </g>
    </g>
</svg>
