<svg xmlns="http://www.w3.org/2000/svg" width="18" height="19" viewBox="0 0 18 19">
    <g fill="none" fill-rule="evenodd">
        <path d="M0 0H24V24H0z" transform="translate(-3 -2)"/>
        <path fill="#141029" fill-rule="nonzero" d="M12.971 2.54L21 7v13c0 .552-.448 1-1 1h-7v-5c0-.552-.448-1-1-1s-1 .448-1 1v5H4c-.552 0-1-.448-1-1V7l8.029-4.46c.604-.336 1.338-.336 1.942 0zM12 4.288L5 8.177V19h4v-3c0-1.657 1.343-3 3-3s3 1.343 3 3v3h4V8.177l-7-3.89z" transform="translate(-3 -2)"/>
    </g>
</svg>
