<svg xmlns="http://www.w3.org/2000/svg" width="20" height="20" viewBox="0 0 20 20">
    <g fill="none" fill-rule="evenodd">
        <path d="M0 0H24V24H0z" transform="translate(-2 -2)"/>
        <path fill="#E0E0FF" d="M13.028 2c1.8.004 2.18.018 3.095.06 1.064.049 1.791.218 2.427.465.658.256 1.216.597 1.772 1.153s.897 1.114 1.153 1.772c.247.636.416 1.363.465 2.427.048 1.067.06 1.407.06 4.123s-.012 3.056-.06 4.123c-.049 1.064-.218 1.791-.465 2.427-.256.658-.597 1.216-1.153 1.772s-1.114.897-1.772 1.153c-.636.247-1.363.416-2.427.465-1.067.048-1.407.06-4.123.06s-3.056-.012-4.123-.06c-1.064-.049-1.791-.218-2.427-.465-.658-.256-1.216-.597-1.772-1.153s-.897-1.114-1.153-1.772c-.247-.636-.416-1.363-.465-2.427-.042-.914-.056-1.295-.06-3.095v-2.056c.004-1.8.018-2.18.06-3.095.049-1.064.218-1.791.465-2.427.256-.658.597-1.216 1.153-1.772s1.114-.897 1.772-1.153c.636-.247 1.363-.416 2.427-.465.914-.042 1.295-.056 3.095-.06zm-.472 1.802h-1.112c-2.165.002-2.509.014-3.485.058-.975.045-1.504.207-1.857.344-.466.182-.8.399-1.15.748-.35.35-.566.684-.748 1.15-.137.353-.3.882-.344 1.857-.044.976-.056 1.32-.058 3.485v1.112c.002 2.165.014 2.509.058 3.485.045.975.207 1.504.344 1.857.182.466.399.8.748 1.15.35.35.684.566 1.15.748.353.137.882.3 1.857.344.976.044 1.32.056 3.485.058h1.112c2.165-.002 2.509-.014 3.485-.058.975-.045 1.504-.207 1.857-.344.466-.182.8-.399 1.15-.748.35-.35.566-.684.748-1.15.137-.353.3-.882.344-1.857.044-.976.056-1.32.058-3.485v-1.112c-.002-2.165-.014-2.509-.058-3.485-.045-.975-.207-1.504-.344-1.857-.182-.466-.399-.8-.748-1.15-.35-.35-.684-.566-1.15-.748-.353-.137-.882-.3-1.857-.344-.976-.044-1.32-.056-3.485-.058zM12 6.865c2.836 0 5.135 2.299 5.135 5.135S14.836 17.135 12 17.135 6.865 14.836 6.865 12 9.164 6.865 12 6.865zm0 1.802c-1.841 0-3.333 1.492-3.333 3.333 0 1.841 1.492 3.333 3.333 3.333 1.841 0 3.333-1.492 3.333-3.333 0-1.841-1.492-3.333-3.333-3.333zm5.338-3.205c.663 0 1.2.537 1.2 1.2 0 .663-.537 1.2-1.2 1.2-.663 0-1.2-.537-1.2-1.2 0-.663.537-1.2 1.2-1.2z" transform="translate(-2 -2)"/>
    </g>
</svg>
