<svg xmlns="http://www.w3.org/2000/svg" width="20" height="20" viewBox="0 0 20 20">
    <g fill="none" fill-rule="evenodd">
        <g>
            <g>
                <path d="M0 0L20 0 20 20 0 20z" transform="translate(-165 -690) translate(165 690)"/>
                <path fill="#FFF" fill-rule="nonzero" d="M15 6.667h-.833V5C14.167 2.7 12.3.833 10 .833S5.833 2.7 5.833 5H7.5c0-1.383 1.117-2.5 2.5-2.5s2.5 1.117 2.5 2.5v1.667H5c-.917 0-1.667.75-1.667 1.666v8.334c0 .916.75 1.666 1.667 1.666h10c.917 0 1.667-.75 1.667-1.666V8.333c0-.916-.75-1.666-1.667-1.666zm0 10H5V8.333h10v8.334zm-5-2.5c.917 0 1.667-.75 1.667-1.667s-.75-1.667-1.667-1.667-1.667.75-1.667 1.667.75 1.667 1.667 1.667z" transform="translate(-165 -690) translate(165 690)"/>
            </g>
        </g>
    </g>
</svg>
