<svg xmlns="http://www.w3.org/2000/svg" width="16" height="14" viewBox="0 0 16 14">
    <g fill="none">
        <path d="M0 0L20 0 20 20 0 20z" transform="translate(-2 -3)"/>
        <path fill="#FF355B" d="M10 14.392l3.458 2.091c.634.384 1.409-.183 1.242-.9l-.917-3.933L16.842 9c.558-.483.258-1.4-.475-1.458L12.342 7.2l-1.575-3.717c-.284-.675-1.25-.675-1.534 0L7.658 7.192l-4.025.341c-.733.059-1.033.975-.475 1.459l3.059 2.65-.917 3.933c-.167.717.608 1.283 1.242.9L10 14.392z" transform="translate(-2 -3)"/>
    </g>
</svg>
