<svg xmlns="http://www.w3.org/2000/svg" width="16" height="16" viewBox="0 0 16 16">
    <g fill="none" fill-rule="evenodd">
        <g>
            <g>
                <path d="M0 0L16 0 16 16 0 16z" transform="translate(-229 -464) translate(229 464)"/>
                <path fill="#F80" fill-rule="nonzero" d="M13.1 6.027l-3.227-.28-1.26-2.967c-.226-.54-1-.54-1.226 0l-1.26 2.973-3.22.274c-.587.046-.827.78-.38 1.166l2.446 2.12-.733 3.147c-.133.573.487 1.027.993.72L8 11.513l2.767 1.674c.506.306 1.126-.147.993-.72l-.733-3.154 2.446-2.12c.447-.386.214-1.12-.373-1.166zM8 10.267L5.493 11.78l.667-2.853-2.213-1.92 2.92-.254L8 4.067 9.14 6.76l2.92.253-2.213 1.92.666 2.854L8 10.267z" transform="translate(-229 -464) translate(229 464)"/>
            </g>
        </g>
    </g>
</svg>
