<svg xmlns="http://www.w3.org/2000/svg" width="40" height="40" viewBox="0 0 40 40">
    <g fill="none" fill-rule="evenodd">
        <g>
            <g>
                <path d="M0 0H40V40H0z" transform="translate(-245 -617) translate(245 617)"/>
                <g fill="#140129" fill-rule="nonzero">
                    <g>
                        <path d="M18.687.02c1.852 0 3.378 1.527 3.378 3.378 0 .95-.4 1.801-1.051 2.427 1.6.85 2.702 2.526 2.727 4.478v1.125c0 .426-.326.75-.75.75-.426 0-.751-.324-.751-.75v-1.125c0-1.877-1.451-3.403-3.278-3.528-.075.025-.175.025-.25.025-.1 0-.175-.025-.275-.025-1.358.114-2.531.984-3.02 2.242.906.91 1.469 2.16 1.469 3.537v1.126c0 .425-.325.75-.75.75-.426 0-.75-.325-.75-.75v-1.126c0-1.851-1.452-3.377-3.278-3.502h-.5c-1.827.125-3.278 1.651-3.278 3.502v1.126c0 .425-.325.75-.75.75s-.75-.325-.75-.75v-1.126c0-1.364.552-2.603 1.443-3.512l.04-.04c-.477-1.272-1.64-2.137-3.01-2.252-.1.025-.175.025-.275.025-.075 0-.175-.025-.25-.025-1.826.15-3.277 1.676-3.277 3.528v1.125c0 .426-.325.75-.75.75-.426 0-.751-.324-.751-.75v-1.125C0 8.35 1.1 6.675 2.702 5.825c-.65-.6-1.05-1.476-1.05-2.427 0-1.851 1.525-3.377 3.376-3.377 1.852 0 3.378 1.526 3.378 3.377 0 .95-.4 1.801-1.051 2.427.498.264.951.607 1.337 1.017-.137-.364-.211-.759-.211-1.167 0-1.852 1.526-3.378 3.377-3.378 1.851 0 3.377 1.526 3.377 3.378 0 .408-.074.798-.21 1.159.377-.408.82-.749 1.31-1.01-.625-.6-1.025-1.475-1.025-2.426 0-1.851 1.526-3.377 3.377-3.377zm-6.83 3.778c-1.025 0-1.875.851-1.875 1.877 0 .95.725 1.75 1.65 1.85h.451c.926-.1 1.651-.9 1.651-1.85 0-1.026-.85-1.877-1.876-1.877zm6.83-2.276c-1.025 0-1.876.85-1.876 1.876 0 .95.726 1.751 1.651 1.851h.45c.926-.1 1.652-.9 1.652-1.85 0-1.027-.851-1.877-1.877-1.877zm-13.659 0c-1.025 0-1.876.85-1.876 1.876 0 .95.726 1.751 1.651 1.851h.45c.926-.1 1.652-.9 1.652-1.85 0-1.027-.851-1.877-1.877-1.877z" transform="translate(-245 -617) translate(245 617) translate(8.125 12.5)"/>
                    </g>
                </g>
            </g>
        </g>
    </g>
</svg>
