<svg xmlns="http://www.w3.org/2000/svg" width="18" height="18" viewBox="0 0 18 18">
    <g fill="none" fill-rule="evenodd">
        <path d="M0 0H20V20H0z" transform="translate(-1 -1)"/>
        <path fill="#141029" fill-rule="nonzero" d="M10 1.667c4.602 0 8.333 3.73 8.333 8.333 0 4.602-3.73 8.333-8.333 8.333-4.602 0-8.333-3.73-8.333-8.333 0-4.602 3.73-8.333 8.333-8.333zm4.149 5.454c-.061-.512-.68-.4-1.026-.284-1.772.674-3.527 1.399-5.275 2.136-1.016.45-2.104.898-3.078 1.435-.474.347.332.577.883.805.614.188 1.33.477 1.944.14 1.202-.691 2.315-1.525 3.455-2.311.208-.133.837-.567.624-.052-.79.863-1.673 1.56-2.506 2.382-.292.237-.595.714-.268 1.047.998.699 2.018 1.376 3.03 2.059.42.336 1.078.064 1.17-.461.269-1.577.544-3.153.783-4.735.094-.719.23-1.438.264-2.161z" transform="translate(-1 -1)"/>
    </g>
</svg>
