<svg xmlns="http://www.w3.org/2000/svg" width="20" height="22" viewBox="0 0 20 22">
    <g fill="none" fill-rule="evenodd">
        <path d="M0 0H24V24H0z" transform="translate(-2 -2)"/>
        <path fill="#665CAC" fill-rule="nonzero" d="M4.108 4.167c2.712-2.487 8.276-2.152 8.276-2.152 4.716.022 6.834 1.56 7.359 2.042 1.737 1.51 2.703 4.858 2.054 10.146-.627 5.13-4.494 5.628-5.178 5.85-.294.094-2.9.746-6.282.461-.374.434-.87 1.004-1.228 1.39-.656.706-1.058 1.358-1.741 1.146-.491-.151-.533-.818-.535-.993v-.042l.003-2.124c-4.953-1.393-4.88-6.523-4.823-9.264.053-2.74.585-4.95 2.095-6.46zm8.19-.661s-4.724-.31-7.02 1.766c-1.275 1.26-1.705 3.133-1.752 5.422-.048 2.288-.292 6.659 3.892 7.82v.06c-.002.44-.016 3.207-.019 3.47 0 .199.032.335.146.363.082.022.206-.022.31-.126.668-.675 2.81-3.257 2.81-3.257 2.875.19 5.16-.38 5.407-.46.576-.183 3.712-.455 4.244-4.74.547-4.419-.203-7.435-1.671-8.698-.443-.402-2.355-1.601-6.346-1.62zM8.822 6.655c.003.003.51.61.727.908.206.282.485.728.624.978.25.45.095.909-.152 1.099l-.494.392c-.25.203-.218.576-.218.576s.734 2.776 3.475 3.475c0 0 .377.032.576-.218l.393-.494c.19-.247.648-.402 1.098-.152.25.143.7.418.978.624.297.218.908.728.908.728.291.243.358.604.162.984 0 .003-.004.006-.004.006-.202.358-.474.697-.82 1.01l-.006.006c-.281.234-.56.37-.832.402-.032.006-.073.01-.12.006-.12 0-.238-.015-.355-.053l-.01-.013c-.42-.117-1.12-.415-2.288-1.057-.76-.418-1.389-.845-1.92-1.27-.282-.22-.57-.474-.865-.765l-.028-.029-.014-.014-.015-.014-.028-.029-.029-.028c-.29-.294-.544-.582-.766-.864-.424-.532-.851-1.165-1.269-1.921-.642-1.168-.94-1.868-1.057-2.289l-.013-.01c-.038-.116-.057-.233-.053-.354-.004-.047 0-.088.006-.12.032-.272.168-.55.402-.832l.006-.007c.314-.345.65-.617 1.01-.82l.006-.002c.38-.197.74-.13.985.161zm3.033-.878c1.551.01 2.862.53 3.91 1.551 1.052 1.029 1.583 2.428 1.597 4.186 0 .148-.118.268-.265.27-.148 0-.268-.118-.269-.266-.012-1.623-.491-2.885-1.435-3.808-.948-.923-2.126-1.39-3.541-1.4-.147 0-.266-.12-.265-.268 0-.147.121-.266.268-.265zm.486 1.387c1.135.08 2.031.473 2.681 1.181.649.707.961 1.587.937 2.63-.003.147-.125.264-.272.26-.148-.003-.264-.125-.261-.272.02-.909-.244-1.655-.797-2.257-.553-.602-1.32-.938-2.326-1.01-.147-.01-.258-.138-.247-.284.01-.147.138-.258.285-.248zm.403 1.43c1.152.062 1.79.721 1.848 1.903.007.147-.107.272-.254.28-.147.006-.272-.107-.279-.254-.044-.912-.468-1.35-1.343-1.396-.147-.007-.26-.133-.252-.28.008-.147.133-.26.28-.252z" transform="translate(-2 -2)"/>
    </g>
</svg>
