<svg xmlns="http://www.w3.org/2000/svg" width="34" height="20" viewBox="0 0 34 20">
    <g fill="none" fill-rule="evenodd">
        <path d="M0 0L48 0 48 48 0 48z" transform="translate(-7 -14)"/>
        <path fill="#16B862" fill-rule="nonzero" d="M40.21 14.59c.78.78.78 2.04 0 2.82L25.05 32.59c-.78.78-2.04.78-2.82 0l-1.413-1.413 11.179-11.193 5.394-5.394c.78-.78 2.04-.78 2.82 0zm-7.165-.005c.78.78.78 2.04 0 2.82l-15.16 15.18c-.78.78-2.04.78-2.82 0l-7.18-7.18c-.78-.78-.78-2.04 0-2.82.78-.78 2.04-.78 2.82 0l5.76 5.76 13.76-13.76c.78-.78 2.04-.78 2.82 0z" transform="translate(-7 -14)"/>
    </g>
</svg>
