<svg xmlns="http://www.w3.org/2000/svg" width="48" height="48" viewBox="0 0 48 48">
    <g fill="none" fill-rule="evenodd">
        <g>
            <g>
                <g>
                    <g>
                        <path d="M0 0H48V48H0z" transform="translate(-1131 -370) translate(165 184) translate(950 170) translate(16 16)"/>
                        <g fill="#FFF" fill-rule="nonzero">
                            <g>
                                <path d="M22.425.025c2.221 0 4.052 1.831 4.052 4.053 0 1.14-.48 2.161-1.26 2.912 1.92 1.02 3.242 3.032 3.272 5.373v1.351c0 .51-.39.9-.9.9-.511 0-.901-.39-.901-.9v-1.35c0-2.252-1.742-4.083-3.933-4.234-.09.03-.21.03-.3.03-.12 0-.21-.03-.33-.03-1.63.136-3.038 1.18-3.625 2.69 1.088 1.093 1.763 2.592 1.763 4.245v1.35c0 .511-.39.901-.9.901s-.9-.39-.9-.9v-1.351c0-2.221-1.742-4.053-3.934-4.203h-.6c-2.191.15-3.932 1.982-3.932 4.203v1.35c0 .511-.39.901-.901.901-.51 0-.9-.39-.9-.9v-1.351c0-1.66.681-3.167 1.778-4.262-.571-1.528-1.965-2.566-3.61-2.703-.12.03-.21.03-.33.03-.09 0-.21-.03-.3-.03-2.192.18-3.933 2.012-3.933 4.233v1.351c0 .51-.39.9-.9.9s-.901-.39-.901-.9v-1.35C0 10.021 1.32 8.01 3.242 6.99c-.78-.72-1.26-1.772-1.26-2.912 0-2.222 1.83-4.053 4.052-4.053 2.221 0 4.053 1.831 4.053 4.053 0 1.14-.48 2.161-1.261 2.912.598.317 1.142.73 1.605 1.221-.165-.436-.254-.91-.254-1.401 0-2.222 1.83-4.053 4.052-4.053 2.222 0 4.053 1.831 4.053 4.053 0 .488-.088.955-.25 1.388.452-.488.983-.896 1.57-1.208-.75-.72-1.23-1.772-1.23-2.912 0-2.222 1.831-4.053 4.053-4.053zm-8.196 4.533c-1.23 0-2.251 1.02-2.251 2.252 0 1.14.87 2.101 1.981 2.221h.54c1.111-.12 1.982-1.08 1.982-2.221 0-1.231-1.02-2.252-2.252-2.252zm8.196-2.732c-1.231 0-2.252 1.021-2.252 2.252 0 1.14.87 2.101 1.982 2.221h.54c1.11-.12 1.981-1.08 1.981-2.221 0-1.231-1.02-2.252-2.251-2.252zm-16.391 0c-1.23 0-2.251 1.021-2.251 2.252 0 1.14.87 2.101 1.98 2.221h.541c1.11-.12 1.982-1.08 1.982-2.221 0-1.231-1.021-2.252-2.252-2.252z" transform="translate(-1131 -370) translate(165 184) translate(950 170) translate(16 16) translate(9.75 15)"/>
                            </g>
                        </g>
                    </g>
                </g>
            </g>
        </g>
    </g>
</svg>
