<svg width="131" height="33" viewBox="0 0 131 33" fill="none" xmlns="http://www.w3.org/2000/svg">
<g clip-path="url(#clip0_62_58)">
<g clip-path="url(#clip1_62_58)">
<path d="M0.000580712 20.2907C-0.325678 26.9263 5.16581 32.3806 11.8848 32.1291C17.6476 31.9126 22.4155 27.4039 22.8548 21.7363C23.0164 19.6635 22.6061 17.7021 21.7695 15.9795H30.0519L34.5743 9.56679H11.649C5.65035 9.56361 0.291306 14.3843 0.000580712 20.2907ZM12.0818 25.6814C8.84833 26.0825 6.12843 23.4016 6.53545 20.2143C6.81325 18.0428 8.59314 16.2884 10.7962 16.0145C14.0297 15.6133 16.7496 18.2943 16.3426 21.4816C16.0648 23.6563 14.2849 25.4075 12.0818 25.6814Z" fill="white"/>
<path d="M6.38347 0.0113983L1.85461 6.42411H36.7708L41.2932 0.0113983H6.38347Z" fill="white"/>
</g>
<path d="M44.0327 9.67904H53.8013V12.5355H47.3253V15.7786H52.2532V18.5492H47.3253V24.0045H44.0327V9.67904Z" fill="white"/>
<path d="M59.3847 23.0594C59.0358 23.4604 58.5925 23.7682 58.0546 23.983C57.5313 24.1977 56.9426 24.3051 56.2884 24.3051C55.925 24.3051 55.5398 24.255 55.1328 24.1548C54.7403 24.0546 54.3696 23.8899 54.0207 23.6608C53.6864 23.4174 53.4029 23.0952 53.1703 22.6943C52.9523 22.2934 52.8433 21.7923 52.8433 21.1909C52.8433 20.6039 52.9596 20.0812 53.1921 19.6231C53.4393 19.1649 53.7736 18.7854 54.1952 18.4848C54.6167 18.1698 55.111 17.9335 55.6779 17.776C56.2594 17.6185 56.8844 17.5398 57.5531 17.5398C57.9165 17.5398 58.2799 17.5469 58.6434 17.5612C59.0213 17.5756 59.2684 17.597 59.3847 17.6257V17.4109C59.3847 17.1532 59.3266 16.9384 59.2103 16.7666C59.1085 16.5804 58.9632 16.4301 58.7742 16.3155C58.5998 16.1867 58.3962 16.1008 58.1637 16.0578C57.9311 16.0005 57.6839 15.9719 57.4223 15.9719C56.7245 15.9719 56.1431 16.0578 55.6779 16.2296C55.2273 16.4015 54.842 16.5948 54.5222 16.8095L53.2357 14.9195C53.4538 14.762 53.7009 14.6045 53.9771 14.447C54.2533 14.2895 54.5804 14.1463 54.9583 14.0175C55.3363 13.8886 55.7578 13.7884 56.223 13.7168C56.7027 13.6309 57.2478 13.5879 57.8584 13.5879C59.4138 13.5879 60.5622 14.0032 61.3036 14.8336C62.0449 15.6498 62.4156 16.7523 62.4156 18.1411V24.0045H59.4719L59.3847 23.0594ZM59.3847 19.5586C59.312 19.5443 59.1739 19.53 58.9704 19.5157C58.7669 19.487 58.5343 19.4727 58.2727 19.4727C57.4005 19.4727 56.7827 19.5944 56.4193 19.8378C56.0558 20.0813 55.8741 20.4249 55.8741 20.8688C55.8741 21.6992 56.3829 22.1144 57.4005 22.1144C57.6476 22.1144 57.8875 22.0786 58.12 22.0071C58.3672 21.9211 58.5779 21.8066 58.7524 21.6634C58.9414 21.5202 59.094 21.3413 59.2103 21.1265C59.3266 20.9117 59.3847 20.6611 59.3847 20.3748V19.5586Z" fill="white"/>
<path d="M63.8253 13.9316H66.8343L66.9216 15.0269C67.2559 14.626 67.692 14.3038 68.2299 14.0604C68.7822 13.817 69.3564 13.6953 69.9524 13.6953C71.1299 13.6953 72.0602 14.0389 72.7435 14.7262C73.4412 15.4135 73.7901 16.4301 73.7901 17.776V24.0045H70.6502V18.2056C70.6502 17.6471 70.5048 17.2033 70.2141 16.874C69.9379 16.5446 69.5454 16.38 69.0366 16.38C68.6878 16.38 68.3825 16.4444 68.1208 16.5733C67.8592 16.6878 67.6411 16.8453 67.4667 17.0458C67.2922 17.2462 67.1614 17.4825 67.0742 17.7545C66.987 18.0123 66.9434 18.2915 66.9434 18.5922V24.0045H63.8253V13.9316Z" fill="white"/>
<path d="M73.4489 9.67904H77.0904L80.6446 20.1385L84.1115 9.67904H87.6003L82.2581 24.0045H78.7911L73.4489 9.67904Z" fill="white"/>
<path d="M96.2805 22.9091C96.1642 22.9807 95.9898 23.1024 95.7572 23.2742C95.5246 23.4317 95.2194 23.5892 94.8414 23.7467C94.478 23.9042 94.0419 24.0402 93.5331 24.1548C93.0243 24.2837 92.4429 24.3481 91.7887 24.3481C90.9165 24.3481 90.1316 24.2192 89.4338 23.9615C88.736 23.6894 88.14 23.3172 87.6458 22.8447C87.1661 22.3722 86.7954 21.8066 86.5338 21.148C86.2866 20.475 86.1631 19.7376 86.1631 18.9358C86.1631 18.2342 86.2794 17.5612 86.5119 16.9169C86.7591 16.2583 87.108 15.6855 87.5586 15.1987C88.0092 14.7119 88.5616 14.3253 89.2158 14.0389C89.8699 13.7383 90.6113 13.5879 91.4399 13.5879C92.2684 13.5879 92.9953 13.7311 93.6203 14.0175C94.2454 14.3038 94.7687 14.7047 95.1903 15.2202C95.6264 15.7213 95.9535 16.3299 96.1715 17.0458C96.3896 17.7474 96.4986 18.5206 96.4986 19.3653V19.8808H89.2158C89.2303 20.4249 89.4701 20.9045 89.9353 21.3198C90.415 21.7207 91.0692 21.9211 91.8978 21.9211C92.7118 21.9211 93.3732 21.8066 93.882 21.5775C94.3908 21.3341 94.7615 21.1265 94.9941 20.9547L96.2805 22.9091ZM93.5331 17.9049C93.5331 17.6901 93.4895 17.4753 93.4023 17.2606C93.3151 17.0315 93.1842 16.8238 93.0098 16.6377C92.8354 16.4516 92.6173 16.3012 92.3557 16.1867C92.094 16.0578 91.7815 15.9934 91.4181 15.9934C91.0546 15.9934 90.7348 16.0578 90.4586 16.1867C90.1824 16.3012 89.9499 16.4516 89.7609 16.6377C89.5864 16.8238 89.4483 17.0315 89.3466 17.2606C89.2594 17.4753 89.2158 17.6901 89.2158 17.9049H93.5331Z" fill="white"/>
<path d="M97.8539 13.9316H100.863L100.972 15.1987C101.234 14.8551 101.59 14.5258 102.04 14.2108C102.506 13.8958 103.102 13.7383 103.828 13.7383C104.105 13.7383 104.337 13.7526 104.526 13.7812C104.73 13.8099 104.926 13.86 105.115 13.9316L104.613 16.6592C104.294 16.559 103.916 16.5088 103.48 16.5088C102.738 16.5088 102.135 16.7308 101.67 17.1746C101.219 17.6042 100.994 18.2199 100.994 19.0217V24.0045H97.8539V13.9316Z" fill="white"/>
<path d="M106.807 20.8902C107.141 21.1909 107.577 21.4415 108.115 21.6419C108.667 21.8424 109.198 21.9426 109.707 21.9426C110.172 21.9426 110.557 21.8853 110.862 21.7708C111.168 21.6563 111.32 21.4343 111.32 21.105C111.32 20.9761 111.284 20.8616 111.211 20.7614C111.153 20.6468 111.037 20.5466 110.862 20.4607C110.688 20.3605 110.441 20.2602 110.121 20.16C109.816 20.0598 109.423 19.9452 108.943 19.8164C108.551 19.7161 108.158 19.5873 107.766 19.4298C107.388 19.2579 107.046 19.0503 106.741 18.8069C106.45 18.5635 106.211 18.27 106.022 17.9264C105.847 17.5827 105.76 17.1818 105.76 16.7236C105.76 16.2511 105.869 15.8287 106.087 15.4565C106.305 15.0699 106.603 14.7405 106.981 14.4685C107.373 14.1821 107.831 13.9674 108.355 13.8242C108.893 13.6667 109.467 13.5879 110.077 13.5879C110.949 13.5879 111.713 13.6881 112.367 13.8886C113.021 14.0747 113.624 14.3539 114.177 14.7262L112.846 16.7666C112.512 16.5518 112.127 16.3585 111.691 16.1867C111.269 16.0149 110.79 15.929 110.252 15.929C109.772 15.929 109.423 16.0005 109.205 16.1437C108.987 16.2726 108.878 16.4516 108.878 16.6807C108.878 17.01 109.103 17.2534 109.554 17.4109C110.005 17.5684 110.615 17.7474 111.386 17.9478C112.432 18.2342 113.188 18.6279 113.653 19.1291C114.133 19.6302 114.373 20.296 114.373 21.1265C114.373 21.6849 114.242 22.1646 113.98 22.5655C113.733 22.9664 113.392 23.3029 112.955 23.5749C112.534 23.8326 112.047 24.0259 111.495 24.1548C110.957 24.2837 110.404 24.3481 109.837 24.3481C108.922 24.3481 108.057 24.2264 107.243 23.983C106.429 23.7396 105.767 23.3673 105.258 22.8661L106.807 20.8902Z" fill="white"/>
<path d="M125.503 22.9091C125.386 22.9807 125.212 23.1024 124.979 23.2742C124.747 23.4317 124.441 23.5892 124.063 23.7467C123.7 23.9042 123.264 24.0402 122.755 24.1548C122.246 24.2837 121.665 24.3481 121.011 24.3481C120.139 24.3481 119.354 24.2192 118.656 23.9615C117.958 23.6894 117.362 23.3172 116.868 22.8447C116.388 22.3722 116.017 21.8066 115.756 21.148C115.509 20.475 115.385 19.7376 115.385 18.9358C115.385 18.2342 115.501 17.5612 115.734 16.9169C115.981 16.2583 116.33 15.6855 116.781 15.1987C117.231 14.7119 117.784 14.3253 118.438 14.0389C119.092 13.7383 119.833 13.5879 120.662 13.5879C121.49 13.5879 122.217 13.7311 122.842 14.0175C123.467 14.3038 123.991 14.7047 124.412 15.2202C124.848 15.7213 125.175 16.3299 125.393 17.0458C125.612 17.7474 125.721 18.5206 125.721 19.3653V19.8808H118.438C118.452 20.4249 118.692 20.9045 119.157 21.3198C119.637 21.7207 120.291 21.9211 121.12 21.9211C121.934 21.9211 122.595 21.8066 123.104 21.5775C123.613 21.3341 123.983 21.1265 124.216 20.9547L125.503 22.9091ZM122.755 17.9049C122.755 17.6901 122.711 17.4753 122.624 17.2606C122.537 17.0315 122.406 16.8238 122.232 16.6377C122.057 16.4516 121.839 16.3012 121.578 16.1867C121.316 16.0578 121.003 15.9934 120.64 15.9934C120.277 15.9934 119.957 16.0578 119.681 16.1867C119.404 16.3012 119.172 16.4516 118.983 16.6377C118.808 16.8238 118.67 17.0315 118.569 17.2606C118.481 17.4753 118.438 17.6901 118.438 17.9049H122.755Z" fill="white"/>
</g>
<defs>
<clipPath id="clip0_62_58">
<rect width="130.214" height="32.2083" fill="white"/>
</clipPath>
<clipPath id="clip1_62_58">
<rect width="129.509" height="32.1241" fill="white" transform="translate(-0.0125122 0.0113831)"/>
</clipPath>
</defs>
</svg>
