<svg width="24" height="24" viewBox="0 0 24 24" fill="none" xmlns="http://www.w3.org/2000/svg">
<g id="plus" opacity="0.4">
<path id="shape" d="M11.9961 19.0703C12.5664 19.0703 13.0352 18.5859 13.0352 18.0547V13.4062H17.5898C18.1367 13.4062 18.6133 12.9375 18.6133 12.3672C18.6133 11.8047 18.1367 11.3281 17.5898 11.3281H13.0352V6.67969C13.0352 6.13281 12.5664 5.66406 11.9961 5.66406C11.4336 5.66406 10.9648 6.13281 10.9648 6.67969V11.3281H6.41016C5.87891 11.3281 5.38672 11.8047 5.38672 12.3672C5.38672 12.9375 5.87891 13.4062 6.41016 13.4062H10.9648V18.0547C10.9648 18.5859 11.4336 19.0703 11.9961 19.0703Z" fill="#E0E0FF"/>
</g>
</svg>
