<svg width="24" height="24" viewBox="0 0 24 24" fill="none" xmlns="http://www.w3.org/2000/svg">
<path fill-rule="evenodd" clip-rule="evenodd" d="M16.4258 21.2109C17.957 21.2109 19.207 19.9609 19.207 18.4297C19.207 17.1953 18.4023 16.1484 17.293 15.7812V15.5469C17.293 13.7812 16.2461 12.5781 14.2305 12.0625L10.2695 11.0312C9.06641 10.7109 8.44141 10.0859 8.44141 9.20312V8.96875C9.55859 8.60156 10.3555 7.55469 10.3555 6.32031C10.3555 4.78125 9.11328 3.53906 7.57422 3.53906C6.04297 3.53906 4.79297 4.78125 4.79297 6.32031C4.79297 7.55469 5.59766 8.60156 6.70703 8.96875V9.20312C6.70703 10.9688 7.75391 12.1719 9.76953 12.6875L13.7227 13.7188C14.9336 14.0391 15.5586 14.6641 15.5586 15.5469V15.7812C14.4414 16.1484 13.6367 17.1953 13.6367 18.4297C13.6367 19.9609 14.8867 21.2109 16.4258 21.2109ZM7.57422 7.47656C6.92578 7.47656 6.41797 6.96875 6.41797 6.32031C6.41797 5.66406 6.92578 5.16406 7.57422 5.16406C8.23047 5.16406 8.73047 5.66406 8.73047 6.32031C8.73047 6.96875 8.23047 7.47656 7.57422 7.47656ZM15.2695 18.4297C15.2695 19.0859 15.7695 19.5859 16.4258 19.5859C17.0742 19.5859 17.5742 19.0859 17.5742 18.4297C17.5742 17.7812 17.0664 17.2734 16.4258 17.2734C15.7695 17.2734 15.2695 17.7812 15.2695 18.4297Z" fill="white" fill-opacity="0.6"/>
</svg>
