<svg width="24" height="24" viewBox="0 0 24 24" fill="none" xmlns="http://www.w3.org/2000/svg">
<path fill-rule="evenodd" clip-rule="evenodd" d="M12.5352 18.3281C12.5352 18.9688 12.0508 19.4453 11.4102 19.4453C10.9727 19.4453 10.6367 19.2656 10.1992 18.875L6.85547 15.8828C6.80859 15.8438 6.75391 15.8203 6.69922 15.8203H4.49609C3.27734 15.8203 2.64453 15.1719 2.64453 13.8828V10.8672C2.64453 9.57812 3.27734 8.92188 4.49609 8.92188H6.69922C6.75391 8.92188 6.80078 8.90625 6.85547 8.85938L10.1992 5.89062C10.668 5.47656 10.9727 5.28906 11.4023 5.28906C12.0508 5.28906 12.5352 5.79688 12.5352 6.4375V18.3281ZM21.3555 12.3594C21.3555 14.3828 20.7617 16.3359 19.7305 17.8359C19.457 18.2422 18.957 18.3438 18.5508 18.0938C18.1055 17.8281 18.0508 17.2812 18.3555 16.7969C19.1602 15.5703 19.6367 14 19.6367 12.3594C19.6367 10.7188 19.1758 9.14062 18.3555 7.91406C18.043 7.42969 18.1055 6.89062 18.5508 6.625C18.957 6.375 19.457 6.46875 19.7305 6.88281C20.7695 8.36719 21.3555 10.3359 21.3555 12.3594ZM10.7148 17.1641C10.6758 17.1641 10.6367 17.1484 10.5898 17.1094L7.65234 14.4375C7.47266 14.2734 7.31641 14.2266 7.08984 14.2266H4.70703C4.47266 14.2266 4.35547 14.1094 4.35547 13.875V10.875C4.35547 10.6406 4.47266 10.5234 4.70703 10.5234H7.08984C7.31641 10.5234 7.47266 10.4766 7.65234 10.3125L10.5898 7.63281C10.6289 7.59375 10.668 7.57031 10.7148 7.57031C10.7773 7.57031 10.8242 7.61719 10.8242 7.6875V17.0469C10.8242 17.1172 10.7773 17.1641 10.7148 17.1641ZM17.4023 12.3594C17.4023 13.6328 17.0195 14.8516 16.3633 15.7422C16.0977 16.1172 15.6055 16.2031 15.2148 15.9609C14.7773 15.6797 14.6914 15.1562 15.043 14.6094C15.4492 13.9922 15.6836 13.1953 15.6836 12.3594C15.6836 11.5156 15.457 10.7188 15.043 10.1094C14.6836 9.5625 14.7773 9.03906 15.2148 8.76562C15.6055 8.50781 16.0977 8.60156 16.3633 8.97656C17.0195 9.86719 17.4023 11.0859 17.4023 12.3594Z" fill="white"/>
</svg>
