<svg width="240" height="240" viewBox="0 0 240 240" fill="none" xmlns="http://www.w3.org/2000/svg">
<path fill-rule="evenodd" clip-rule="evenodd" d="M177.5 181.094C179.687 187.656 178.906 192.734 174.844 195.781C170.703 198.906 165.703 197.891 160 193.75L120 164.375L80 193.75C74.2969 197.891 69.2969 198.906 65.1562 195.781C61.0937 192.734 60.3125 187.656 62.5 181.094L78.3594 134.141L37.9687 105.156C32.3437 101.172 29.8437 96.5625 31.5625 91.6406C33.2031 86.875 37.7344 84.5312 44.6875 84.6094L94.1406 85L109.219 37.7344C111.406 31.0156 114.922 27.3438 120 27.3438C125.078 27.3438 128.672 31.0156 130.781 37.7344L145.859 85L195.312 84.6094C202.266 84.5312 206.797 86.875 208.437 91.7188C210.078 96.5625 207.656 101.172 202.031 105.156L161.641 134.141L177.5 181.094ZM125.156 147.969L158.203 173.672C158.259 173.7 158.311 173.728 158.358 173.754C158.572 173.872 158.7 173.942 158.828 173.75C158.906 173.594 158.906 173.516 158.828 173.125L144.688 133.75C143.047 129.297 143.438 126.953 147.656 124.141L182.344 100.547C182.656 100.312 182.734 100.234 182.734 100C182.656 99.8438 182.422 99.8438 182.031 99.8438L140.234 101.016C135.469 101.172 133.281 99.9219 132.031 95.2344L120.391 55.0781C120.312 54.6875 120.156 54.5312 120 54.5312C119.844 54.5312 119.687 54.6875 119.609 55.0781L108.047 95.2344C106.719 99.9219 104.531 101.172 99.7656 101.016L57.9687 99.8438C57.5781 99.8438 57.4219 99.8438 57.3437 100C57.2656 100.234 57.4219 100.391 57.7344 100.547L92.3437 124.062C96.6406 126.875 96.9531 129.297 95.3125 133.75L81.1719 173.125C81.0937 173.516 81.0937 173.594 81.1719 173.75C81.3 173.942 81.4281 173.872 81.6422 173.754C81.6893 173.728 81.7406 173.7 81.7969 173.672L114.844 147.969C118.672 144.922 121.328 144.922 125.156 147.969Z" fill="#9C42F5"/>
</svg>
