<svg xmlns="http://www.w3.org/2000/svg" width="16" height="16" viewBox="0 0 16 16">
    <g fill="none" fill-rule="evenodd">
        <g>
            <g>
                <path d="M0 0H16V16H0z" transform="translate(-245 -458) translate(245 458)"/>
                <g fill="#141029" fill-opacity=".6">
                    <path d="M7.762 1.235l.058.092L12.84 10c.497.858-.087 1.928-1.055 1.997l-.098.003H1.647c-.994 0-1.625-1.043-1.2-1.914L.493 10l5.02-8.673c.495-.855 1.703-.886 2.25-.092zm-1.095.76l-5.019 8.672h10.037L6.667 1.996zm0 6.672c.368 0 .666.298.666.666 0 .369-.298.667-.666.667C6.298 10 6 9.702 6 9.333c0-.368.298-.666.667-.666zm0-4c.366 0 .666.3.666.666v1.334c0 .366-.3.666-.666.666-.367 0-.667-.3-.667-.666V5.333c0-.366.3-.666.667-.666z" transform="translate(-245 -458) translate(245 458) translate(1.333 1.333)"/>
                </g>
            </g>
        </g>
    </g>
</svg>
