<svg xmlns="http://www.w3.org/2000/svg" width="20" height="20" viewBox="0 0 20 20">
    <g fill="none" fill-rule="evenodd">
        <path d="M0 0H24V24H0z" transform="translate(-2 -2)"/>
        <g>
            <path fill="#E0E0FF" d="M10 0c5.523 0 10 4.477 10 10s-4.477 10-10 10S0 15.523 0 10 4.477 0 10 0zm.749 3.982H9.405V5.69c-.812.093-1.447.387-1.904.882-.457.495-.686 1.106-.686 1.834 0 .42.075.786.224 1.099.15.313.383.574.7.784.317.21.62.378.91.504.29.126.672.259 1.148.399.597.187 1.013.364 1.246.532.233.168.35.401.35.7 0 .261-.107.471-.322.63-.215.159-.5.238-.854.238-.83 0-1.593-.302-2.29-.906l-.188-.172L6.591 13.6c.744.719 1.59 1.175 2.539 1.368l.261.046v1.666h1.358v-1.638c.84-.103 1.503-.399 1.988-.889.485-.49.728-1.118.728-1.883 0-.364-.051-.684-.154-.959-.103-.275-.231-.504-.385-.686-.154-.182-.38-.355-.679-.518-.299-.163-.576-.294-.833-.392-.257-.098-.609-.217-1.057-.357-.532-.159-.912-.317-1.141-.476-.229-.159-.343-.364-.343-.616s.098-.448.294-.588c.196-.14.476-.21.84-.21.638 0 1.28.212 1.927.635l.215.149 1.106-1.372c-.639-.514-1.37-.87-2.193-1.067l-.313-.067V3.982z" transform="translate(-2 -2) translate(2 2)"/>
        </g>
    </g>
</svg>
