<svg xmlns="http://www.w3.org/2000/svg" width="24" height="24" viewBox="0 0 24 24">
    <g fill="none" fill-rule="evenodd">
        <g>
            <g>
                <g>
                    <g>
                        <g>
                            <path d="M0 0H24V24H0z" transform="translate(-771 -512) translate(165 476) translate(570) translate(24 24) translate(12 12)"/>
                            <path fill="#FF5E00" fill-rule="nonzero" d="M20.828 19.852c1.399 0 2.211-.766 2.211-2.11V7c0-1.336-.812-2.11-2.21-2.11H19c-1.398 0-2.203.774-2.203 2.11v10.742c0 1.344.805 2.11 2.203 2.11h1.828zm-.281-1.586H19.28c-.547 0-.781-.227-.781-.766V7.25c0-.54.234-.773.781-.773h1.274c.547 0 .78.234.78.773V17.5c0 .54-.233.766-.788.766zm-7.117 1.586c1.398 0 2.21-.766 2.21-2.11V9.273c0-1.335-.812-2.101-2.21-2.101h-1.828c-1.407 0-2.211.766-2.211 2.11v8.46c0 1.344.804 2.11 2.21 2.11h1.829zm-.282-1.586h-1.265c-.547 0-.781-.227-.781-.766V9.523c0-.539.234-.773.78-.773h1.266c.547 0 .782.234.782.773V17.5c0 .54-.235.766-.782.766zm-7.125 1.586c1.407 0 2.211-.766 2.211-2.11v-6.18c0-1.335-.804-2.101-2.21-2.101h-1.82c-1.407 0-2.212.766-2.212 2.11v6.171c0 1.344.805 2.11 2.211 2.11h1.82zm-.28-1.586H4.483c-.546 0-.789-.227-.789-.766v-5.688c0-.539.243-.773.79-.773H5.75c.547 0 .781.234.781.774V17.5c0 .54-.234.766-.789.766z" transform="translate(-771 -512) translate(165 476) translate(570) translate(24 24) translate(12 12)"/>
                        </g>
                    </g>
                </g>
            </g>
        </g>
    </g>
</svg>
