<svg xmlns="http://www.w3.org/2000/svg" width="14" height="18" viewBox="0 0 14 18">
    <g fill="none" fill-rule="evenodd">
        <path d="M0 0L24 0 24 24 0 24z" transform="translate(-5 -3)"/>
        <path fill="#141029" fill-rule="nonzero" d="M16.926 7c.552 0 1 .448 1 1 0 .024 0 .048-.003.071l-.857 12c-.037.524-.472.929-.997.929H7.93c-.525 0-.96-.405-.997-.929l-.857-12c-.04-.55.375-1.03.926-1.068L7.038 7 16.926 7zm-1.074 2H8.148l.714 10h6.276l.714-10zM14 3c.552 0 1 .448 1 1h3c.552 0 1 .448 1 1s-.448 1-1 1H6c-.552 0-1-.448-1-1s.448-1 1-1h3c0-.552.448-1 1-1h4z" transform="translate(-5 -3)"/>
    </g>
</svg>
