<svg xmlns="http://www.w3.org/2000/svg" width="20" height="20" viewBox="0 0 20 20">
    <g fill="none" fill-rule="evenodd">
        <g>
            <g>
                <g>
                    <path d="M0 0L20 0 20 20 0 20z" transform="translate(-441 -554) translate(441 554)"/>
                </g>
                <path fill="#16B862" fill-rule="nonzero" d="M15.833 10.833V15c0 .458-.375.833-.833.833H5c-.458 0-.833-.375-.833-.833v-4.167c0-.458-.375-.833-.834-.833-.458 0-.833.375-.833.833v5c0 .917.75 1.667 1.667 1.667h11.666c.917 0 1.667-.75 1.667-1.667v-5c0-.458-.375-.833-.833-.833-.459 0-.834.375-.834.833zm-5-.275L12.4 8.992c.325-.325.85-.325 1.175 0 .325.325.325.85 0 1.175l-2.992 2.991c-.325.325-.85.325-1.175 0l-2.991-2.991c-.325-.325-.325-.85 0-1.175.325-.325.85-.325 1.175 0l1.575 1.566V3.333c0-.458.375-.833.833-.833.458 0 .833.375.833.833v7.225z" transform="translate(-441 -554) translate(441 554)"/>
            </g>
        </g>
    </g>
</svg>
