<svg xmlns="http://www.w3.org/2000/svg" width="16" height="16" viewBox="0 0 16 16">
    <g fill="none" fill-rule="evenodd" opacity=".6">
        <path d="M0 0L20 0 20 20 0 20z" transform="translate(-2 -2)"/>
        <path fill="#141029" fill-rule="nonzero" d="M5.45 4.167c.05.741.175 1.466.375 2.158l-1 1c-.342-1-.558-2.058-.633-3.158H5.45m8.217 10.016c.708.2 1.433.325 2.166.375V15.8c-1.1-.075-2.158-.292-3.166-.625l1-.992M6.25 2.5H3.333c-.458 0-.833.375-.833.833C2.5 11.158 8.842 17.5 16.667 17.5c.458 0 .833-.375.833-.833v-2.909c0-.458-.375-.833-.833-.833-1.034 0-2.042-.167-2.975-.475-.084-.033-.175-.042-.259-.042-.216 0-.425.084-.591.242l-1.834 1.833C8.65 13.275 6.717 11.35 5.517 8.992L7.35 7.158c.233-.233.3-.558.208-.85-.308-.933-.475-1.933-.475-2.975 0-.458-.375-.833-.833-.833z" transform="translate(-2 -2)"/>
    </g>
</svg>
