<svg xmlns="http://www.w3.org/2000/svg" xmlns:xlink="http://www.w3.org/1999/xlink" width="14" height="14" viewBox="0 0 14 14">
    <defs>
        <path id="prefix__a" d="M13 8H8v5c0 .55-.45 1-1 1s-1-.45-1-1V8H1c-.55 0-1-.45-1-1s.45-1 1-1h5V1c0-.55.45-1 1-1s1 .45 1 1v5h5c.55 0 1 .45 1 1s-.45 1-1 1z"/>
    </defs>
    <g fill="none" fill-rule="evenodd">
        <path d="M0 0L24 0 24 24 0 24z" transform="translate(-5 -5)"/>
        <g transform="translate(-5 -5) translate(5 5)">
            <use fill="#E0E0FF" fill-rule="nonzero" xlink:href="#prefix__a"/>
        </g>
    </g>
</svg>
