<svg xmlns="http://www.w3.org/2000/svg" width="16" height="15" viewBox="0 0 16 15">
    <g fill="none" fill-rule="evenodd" opacity=".6">
        <path d="M0 0L20 0 20 20 0 20z" transform="translate(-2 -2)"/>
        <path fill="#141029" fill-rule="nonzero" d="M10 2.5c4.142 0 7.5 2.985 7.5 6.667 0 1.59-.627 3.05-1.672 4.196.003.08.005.16.005.242v2.062c0 .552-.447 1-1 1h-.232c-1.115 0-2.15-.366-2.985-.989-.52.102-1.06.155-1.616.155-4.142 0-7.5-2.984-7.5-6.666C2.5 5.485 5.858 2.5 10 2.5zm4.167 11.105c0-.054-.002-.11-.004-.165l-.032-.69.466-.51c.801-.878 1.236-1.95 1.236-3.073 0-2.715-2.57-5-5.833-5-3.263 0-5.833 2.285-5.833 5s2.57 5 5.833 5c.441 0 .875-.042 1.296-.125l.724-.141.591.44c.457.34.99.557 1.556.631v-1.367z" transform="translate(-2 -2)"/>
    </g>
</svg>
