<svg xmlns="http://www.w3.org/2000/svg" width="20" height="20" viewBox="0 0 20 20">
    <g fill="none" fill-rule="evenodd">
        <g>
            <g>
                <g>
                    <path d="M0 0L20 0 20 20 0 20z" transform="translate(-1015 -1062) translate(0 1048) translate(1015 14)"/>
                    <path fill="#E0E0FF" fill-rule="nonzero" d="M16.075 14.408L15 13.333V9.167c0-2.559-1.367-4.7-3.75-5.267v-.567c0-.691-.558-1.25-1.25-1.25s-1.25.559-1.25 1.25V3.9C6.358 4.467 5 6.6 5 9.167v4.166l-1.075 1.075c-.525.525-.158 1.425.583 1.425h10.975c.75 0 1.117-.9.592-1.425zm-2.742-.241H6.667v-5c0-2.067 1.258-3.75 3.333-3.75s3.333 1.683 3.333 3.75v5zM10 18.333c.917 0 1.667-.75 1.667-1.666H8.333c0 .916.742 1.666 1.667 1.666z" transform="translate(-1015 -1062) translate(0 1048) translate(1015 14)"/>
                </g>
            </g>
        </g>
    </g>
</svg>
