<svg xmlns="http://www.w3.org/2000/svg" width="24" height="24" viewBox="0 0 24 24">
    <g fill="none" fill-rule="evenodd">
        <g>
            <g>
                <g>
                    <path d="M0 0H24V24H0z" transform="translate(-950 -24) translate(938 12) translate(12 12)"/>
                    <path fill="#141029" fill-rule="nonzero" d="M18.195 19.836c.758 0 1.328-.594 1.328-1.344 0-.351-.117-.687-.382-.953l-3.188-3.195c.656-.985 1.031-2.164 1.031-3.43 0-3.437-2.812-6.258-6.25-6.258-3.437 0-6.257 2.813-6.257 6.258 0 3.438 2.82 6.258 6.257 6.258 1.196 0 2.32-.344 3.274-.938l3.219 3.22c.257.257.609.382.968.382zm-7.46-4.57c-2.4 0-4.36-1.961-4.36-4.352 0-2.39 1.96-4.351 4.36-4.351 2.39 0 4.35 1.96 4.35 4.351 0 2.39-1.96 4.352-4.35 4.352z" transform="translate(-950 -24) translate(938 12) translate(12 12)"/>
                </g>
            </g>
        </g>
    </g>
</svg>
