<svg xmlns="http://www.w3.org/2000/svg" xmlns:xlink="http://www.w3.org/1999/xlink" width="24" height="24" viewBox="0 0 24 24">
    <defs>
        <path id="prefix__a" d="M10.22 0c.917 0 1.717.625 1.94 1.515l.351 1.403 1.392-.397c.83-.237 1.712.086 2.196.787l.086.136 1.219 2.112c.459.795.318 1.8-.342 2.438L16.021 9l1.041 1.006c.556.538.748 1.342.489 2.11l-.063.163-.084.165-1.22 2.112c-.414.718-1.226 1.103-2.101.964l-.18-.041-1.392-.398-.351 1.404c-.19.76-.805 1.333-1.608 1.483l-.163.024-.17.008H7.781c-.836 0-1.582-.52-1.892-1.352l-.048-.162-.353-1.405-1.39.398c-.83.237-1.713-.086-2.197-.787l-.086-.136-1.219-2.112c-.459-.795-.318-1.8.342-2.437l1.039-1.008L.938 7.994c-.619-.598-.781-1.52-.42-2.287l.078-.151 1.22-2.112c.458-.795 1.4-1.175 2.281-.923l1.391.397.352-1.403C6.05.677 6.77.075 7.62.006L7.78 0zm-.001 2H7.781L7.2 4.31l-.414.205c-.194.096-.383.205-.563.326l-.385.257-2.292-.654-1.219 2.112L4.04 8.213l-.03.461C4.003 8.782 4 8.891 4 9c0 .11.003.218.01.326l.03.461-1.712 1.657 1.22 2.112 2.29-.654.386.257c.18.121.369.23.563.326l.414.205.58 2.31 2.382.002.057-.002.577-2.31.415-.204c.195-.097.383-.206.564-.327l.385-.257 2.292.654 1.19-2.058.029-.054-1.712-1.656.03-.461c.006-.109.01-.218.01-.327 0-.11-.004-.218-.01-.327l-.03-.461 1.712-1.656-1.22-2.112-2.29.654-.386-.257c-.18-.121-.37-.23-.564-.327l-.415-.205L10.22 2zM9 5c2.21 0 4 1.79 4 4s-1.79 4-4 4-4-1.79-4-4 1.79-4 4-4zm0 2c-1.105 0-2 .895-2 2s.895 2 2 2 2-.895 2-2-.895-2-2-2z"/>
    </defs>
    <g fill="none" fill-rule="evenodd">
        <path d="M0 0L24 0 24 24 0 24z"/>
        <g transform="translate(3 3)">
            <mask id="prefix__b" fill="#fff">
                <use xlink:href="#prefix__a"/>
            </mask>
            <use fill="#141029" fill-rule="nonzero" xlink:href="#prefix__a"/>
            <g fill="#E0E0FF" mask="url(#prefix__b)">
                <path d="M0 0H24V24H0z" transform="translate(-3 -3)"/>
            </g>
        </g>
    </g>
</svg>
