<svg xmlns="http://www.w3.org/2000/svg" width="12" height="16" viewBox="0 0 12 16">
    <g fill="none" fill-rule="evenodd">
        <path d="M0 0L16 0 16 16 0 16z" transform="rotate(-90 7 9)"/>
        <path fill="#E0E0FF" fill-rule="nonzero" d="M8.354 10.313l1.46-1.46c.194-.195.194-.511 0-.707C9.718 8.053 9.591 8 9.46 8h-.793V2.667C8.667 2.298 8.368 2 8 2c-.368 0-.667.298-.667.667V8H6.54c-.276 0-.5.224-.5.5 0 .133.053.26.147.354l1.46 1.46c.195.194.511.194.707 0zM14 2h-3.337c-.366 0-.663.297-.663.663 0 .367.297.664.663.664H13.7c.166 0 .3.134.3.3v8.753c0 .166-.134.3-.3.3H2.3c-.166 0-.3-.134-.3-.3V3.627c0-.166.134-.3.3-.3h3.037c.366 0 .663-.297.663-.664C6 2.297 5.703 2 5.337 2H2C1.267 2 .667 2.6.667 3.333v9.334C.667 13.4 1.267 14 2 14h12c.733 0 1.333-.6 1.333-1.333V3.333C15.333 2.6 14.733 2 14 2z" transform="rotate(-90 7 9)"/>
    </g>
</svg>
