<svg xmlns="http://www.w3.org/2000/svg" width="24" height="24" viewBox="0 0 24 24">
    <g fill="none" fill-rule="evenodd">
        <g>
            <g>
                <g>
                    <g>
                        <g>
                            <path d="M0 0H24V24H0z" transform="translate(-486 -512) translate(165 476) translate(285) translate(24 24) translate(12 12)"/>
                            <path fill="#FF5E00" fill-rule="nonzero" d="M12 20.531c4.477 0 8.164-3.695 8.164-8.172 0-4.476-3.695-8.164-8.164-8.164-4.477 0-8.164 3.688-8.164 8.164 0 4.477 3.687 8.172 8.164 8.172zm0-1.836c-3.508 0-6.32-2.828-6.32-6.336 0-3.507 2.804-6.328 6.32-6.328 3.508 0 6.328 2.82 6.336 6.328 0 3.508-2.828 6.336-6.336 6.336zm0-9.851c.453 0 .828-.383.828-.836 0-.453-.383-.828-.828-.828-.469 0-.836.375-.836.828 0 .453.375.836.836.836zm-3.023 1.351c.46 0 .828-.383.828-.836 0-.453-.367-.828-.828-.828-.454 0-.836.375-.836.828 0 .454.382.836.836.836zm3.976 3.133l2.719-3.922c.351-.523-.149-1.031-.68-.68l-3.953 2.688c-.789.531-.937 1.5-.266 2.195.688.664 1.649.508 2.18-.28zm-5.258-.133c.461 0 .836-.383.836-.836 0-.46-.375-.828-.836-.828-.453 0-.828.367-.828.828 0 .454.383.836.828.836zm8.602 0c.453 0 .828-.383.828-.836 0-.46-.375-.828-.828-.828-.461 0-.828.367-.828.828 0 .454.367.836.828.836zm-7.313 2.992c.461 0 .836-.375.836-.828 0-.46-.375-.836-.836-.836-.453 0-.828.375-.828.836 0 .454.383.829.828.829zm6.024 0c.453 0 .828-.375.828-.828 0-.46-.375-.836-.828-.836-.461 0-.828.375-.828.836 0 .454.367.829.828.829z" transform="translate(-486 -512) translate(165 476) translate(285) translate(24 24) translate(12 12)"/>
                        </g>
                    </g>
                </g>
            </g>
        </g>
    </g>
</svg>
