<svg xmlns="http://www.w3.org/2000/svg" width="14" height="14" viewBox="0 0 14 14">
    <g fill="none" fill-rule="evenodd">
        <path d="M0 0L24 0 24 24 0 24z" transform="translate(-5 -5)"/>
        <path fill="#141029" fill-rule="nonzero" d="M6 10c.552 0 1 .448 1 1v7c0 .552-.448 1-1 1s-1-.448-1-1v-7c0-.552.448-1 1-1zm6-5c.552 0 1 .448 1 1v12c0 .552-.448 1-1 1s-1-.448-1-1V6c0-.552.448-1 1-1zm6 8c.552 0 1 .448 1 1v4c0 .552-.448 1-1 1s-1-.448-1-1v-4c0-.552.448-1 1-1z" transform="translate(-5 -5)"/>
    </g>
</svg>
