<?xml version="1.0" encoding="utf-8"?>
<svg width="12px" height="12px" viewBox="0 0 12 12" version="1.1" xmlns:xlink="http://www.w3.org/1999/xlink" xmlns="http://www.w3.org/2000/svg">
  <desc>Created with Lunacy</desc>
  <defs>
    <linearGradient x1="0.93370384" y1="0.270081669" x2="0.114937574" y2="0.7560192" id="gradient_1">
      <stop offset="0" stop-color="#E23130" />
      <stop offset="1" stop-color="#FD8404" />
    </linearGradient>
  </defs>
  <g id="sun-2">
    <path d="M6 1.9726C6.22129 1.9726 6.41096 1.7891 6.41096 1.57502L6.41096 0.397579C6.41096 0.183498 6.22129 0 6 0C5.77871 0 5.58904 0.183498 5.58904 0.397579L5.58904 1.57502C5.58904 1.7891 5.77871 1.9726 6 1.9726ZM3.17136 3.17136C3.01628 3.32644 2.76816 3.32644 2.61308 3.17136L1.76014 2.31843C1.60507 2.16335 1.60507 1.91522 1.76014 1.76014C1.91522 1.60507 2.16335 1.60507 2.31843 1.76014L3.17136 2.61308C3.32644 2.76816 3.32644 3.01628 3.17136 3.17136ZM10.2399 2.31843L9.38692 3.17136C9.21634 3.32644 8.96821 3.32644 8.82864 3.17136C8.67356 3.01628 8.67356 2.76816 8.82864 2.61308L9.68157 1.76014C9.83665 1.60507 10.0848 1.60507 10.2399 1.76014C10.3949 1.91522 10.3949 2.16335 10.2399 2.31843ZM6 2.9589C6.8323 2.9589 7.60058 3.31103 8.14477 3.85523C8.70497 4.39942 9.0411 5.1677 9.0411 6C9.0411 6.8323 8.68897 7.60058 8.14477 8.14477C7.60058 8.70497 6.8323 9.0411 6 9.0411C5.1677 9.0411 4.39942 8.68897 3.85523 8.14477C3.31103 7.60058 2.9589 6.8323 2.9589 6C2.9589 5.1677 3.31103 4.39942 3.85523 3.85523C4.39942 3.29503 5.1677 2.9589 6 2.9589ZM1.9726 6C1.9726 5.77871 1.7891 5.58904 1.57502 5.58904L0.397579 5.58904C0.183498 5.58904 0 5.77871 0 6C0 6.22129 0.183498 6.41096 0.397579 6.41096L1.57502 6.41096C1.7891 6.41096 1.9726 6.22129 1.9726 6ZM11.6024 5.58904L10.425 5.58904C10.2109 5.58904 10.0274 5.77871 10.0274 6C10.0274 6.22129 10.2109 6.41096 10.425 6.41096L11.6024 6.41096C11.8165 6.41096 12 6.22129 12 6C12 5.77871 11.8165 5.58904 11.6024 5.58904ZM1.76014 9.68157L2.61308 8.82864C2.78367 8.67356 3.03179 8.67356 3.17136 8.82864C3.32644 8.98372 3.32644 9.23184 3.17136 9.38692L2.31843 10.2399C2.16335 10.3949 1.91522 10.3949 1.76014 10.2399C1.60507 10.0848 1.60507 9.83665 1.76014 9.68157ZM8.82864 8.82864C8.98372 8.67356 9.23184 8.67356 9.38692 8.82864L10.2399 9.68157C10.3949 9.83665 10.3949 10.0848 10.2399 10.2399C10.0848 10.3949 9.83665 10.3949 9.68157 10.2399L8.82864 9.38692C8.67356 9.23184 8.67356 8.98372 8.82864 8.82864ZM6 10.0274C5.77871 10.0274 5.58904 10.2109 5.58904 10.425L5.58904 11.6024C5.58904 11.8165 5.77871 12 6 12C6.22129 12 6.41096 11.8165 6.41096 11.6024L6.41096 10.425C6.41096 10.2109 6.22129 10.0274 6 10.0274Z" id="Combined-Shape" fill="url(#gradient_1)" fill-rule="evenodd" stroke="none" />
  </g>
</svg>