<svg xmlns="http://www.w3.org/2000/svg" width="18" height="18" viewBox="0 0 18 18">
    <g fill="none" fill-rule="evenodd" >
        <path d="M0 0L24 0 24 24 0 24z" transform="translate(-3 -3)"/>
        <path fill="#141029" fill-rule="nonzero" d="M12 3c4.97 0 9 4.03 9 9s-4.03 9-9 9-9-4.03-9-9 4.03-9 9-9zm0 2c-3.866 0-7 3.134-7 7s3.134 7 7 7 7-3.134 7-7-3.134-7-7-7zm0 3c.552 0 1 .448 1 1v3l-.001.01 1.844 1.844c.39.39.39 1.023 0 1.414-.39.39-1.024.39-1.415 0l-2.12-2.122c-.166-.165-.261-.373-.287-.588-.014-.05-.021-.103-.021-.158V9c0-.552.448-1 1-1z" transform="translate(-3 -3)"/>
    </g>
</svg>
