<svg xmlns="http://www.w3.org/2000/svg" width="24" height="24" viewBox="0 0 24 24">
    <g fill="none" fill-rule="evenodd">
        <g>
            <g>
                <g>
                    <path d="M0 0H24V24H0z" transform="translate(-1070 -24) translate(1058 12) translate(12 12)"/>
                    <path fill="#141029" fill-rule="nonzero" d="M12.008 12.555c1.914 0 3.453-1.68 3.453-3.75 0-2.032-1.547-3.664-3.453-3.664S8.539 6.789 8.547 8.812c.008 2.07 1.539 3.743 3.46 3.743zm0-1.508c-1.031 0-1.899-.969-1.899-2.235-.007-1.21.868-2.164 1.899-2.164 1.031 0 1.89.938 1.89 2.157 0 1.258-.859 2.242-1.89 2.242zm4.836 8.797c1.383 0 2.062-.453 2.062-1.422 0-2.227-2.758-5.008-6.906-5.008s-6.906 2.781-6.906 5.008c0 .969.68 1.422 2.07 1.422h9.68zm.14-1.508H7.016c-.172 0-.235-.055-.235-.188 0-1.125 1.89-3.226 5.219-3.226 3.328 0 5.219 2.101 5.219 3.226 0 .133-.063.188-.235.188z" transform="translate(-1070 -24) translate(1058 12) translate(12 12)"/>
                </g>
            </g>
        </g>
    </g>
</svg>
