<svg xmlns="http://www.w3.org/2000/svg" width="18" height="18" viewBox="0 0 18 18">
    <g fill="none" fill-rule="evenodd" opacity=".6">
        <path d="M0 0H20V20H0z" transform="translate(-1 -1)"/>
        <path fill="#141029" d="M13.818 11.654c-.209-.104-1.227-.602-1.417-.67-.19-.07-.328-.105-.467.104-.137.204-.535.669-.656.806-.121.136-.242.146-.448.053-.208-.105-.877-.323-1.669-1.032-.617-.552-1.03-1.229-1.153-1.437-.12-.209-.013-.323.09-.427.095-.094.21-.24.314-.364.101-.125.135-.209.206-.344.07-.146.034-.26-.017-.364-.052-.104-.467-1.125-.64-1.532-.167-.405-.339-.354-.467-.354-.12-.01-.258-.01-.397-.01s-.363.051-.553.249c-.19.208-.726.708-.726 1.719 0 1.01.743 1.99.847 2.135.103.136 1.461 2.219 3.541 3.115.496.208.882.333 1.184.437.495.157.947.135 1.305.084.399-.064 1.227-.501 1.4-.99.177-.49.177-.897.125-.99-.051-.094-.187-.146-.396-.24m-3.782 5.169h-.01c-1.23 0-2.448-.334-3.511-.959l-.25-.148-2.604.677.698-2.531-.166-.26c-.688-1.095-1.053-2.356-1.053-3.653 0-3.782 3.094-6.865 6.904-6.865 1.843 0 3.573.719 4.876 2.02 1.302 1.292 2.02 3.022 2.02 4.855-.003 3.78-3.097 6.865-6.9 6.865m5.87-12.71c-1.583-1.53-3.666-2.395-5.885-2.395-4.57 0-8.292 3.704-8.294 8.259 0 1.455.381 2.875 1.107 4.128l-1.177 4.28 4.399-1.148c1.212.655 2.576 1.003 3.965 1.005h.004c4.573 0 8.296-3.706 8.298-8.261 0-2.206-.86-4.281-2.427-5.841" transform="translate(-1 -1)"/>
    </g>
</svg>
