<svg xmlns="http://www.w3.org/2000/svg" xmlns:xlink="http://www.w3.org/1999/xlink" width="24" height="24" viewBox="0 0 24 24">
    <defs>
        <path id="prefix__a" d="M13.885 1.173c.076.183.115.38.115.577V5h2c1.105 0 2 .896 2 2v9c0 1.105-.895 2-2 2H2c-1.105 0-2-.895-2-2V7c0-.118.01-.234.03-.347C.17 5.77.759 5.01 1.6 4.66l2.133-.883-.001.001L11.923.366c.765-.319 1.643.043 1.962.807zM15.7 7H2.3c-.166 0-.3.135-.3.3v8.4c0 .166.134.3.3.3h13.4c.166 0 .3-.134.3-.3V7.3c0-.165-.134-.3-.3-.3zm-4.2 3c.828 0 1.5.672 1.5 1.5 0 .829-.672 1.5-1.5 1.5S10 12.33 10 11.5c0-.828.672-1.5 1.5-1.5zm.4-7.45c-.013 0-.026.003-.038.008L6 5h6V2.65c0-.055-.045-.1-.1-.1z"/>
    </defs>
    <g fill="none" fill-rule="evenodd">
        <path d="M0 0L24 0 24 24 0 24z"/>
        <g transform="translate(3 3)">
            <mask id="prefix__b" fill="#fff">
                <use xlink:href="#prefix__a"/>
            </mask>
            <use fill="#141029" fill-rule="nonzero" xlink:href="#prefix__a"/>
            <g fill="#E0E0FF" mask="url(#prefix__b)">
                <path d="M0 0H24V24H0z" transform="translate(-3 -3)"/>
            </g>
        </g>
    </g>
</svg>
