<svg xmlns="http://www.w3.org/2000/svg" width="20" height="20" viewBox="0 0 20 20">
    <g fill="none" fill-rule="evenodd">
        <path d="M0 0H24V24H0z" transform="translate(-2 -2)"/>
        <path fill="#25D366" d="M16.582 13.985c-.251-.125-1.473-.723-1.7-.805-.228-.084-.394-.125-.561.125-.164.246-.643.803-.787.968-.146.163-.29.175-.538.063-.25-.125-1.053-.388-2.003-1.238-.74-.662-1.236-1.475-1.383-1.725-.145-.25-.016-.387.108-.512.114-.113.251-.288.376-.436.122-.15.162-.25.248-.413.083-.175.04-.313-.021-.437-.063-.125-.56-1.35-.768-1.838-.2-.487-.406-.425-.56-.425-.144-.013-.31-.013-.476-.013-.167 0-.436.062-.664.3-.228.25-.871.85-.871 2.062 0 1.212.891 2.387 1.015 2.562.125.163 1.755 2.663 4.25 3.738.595.25 1.059.4 1.42.524.595.19 1.138.163 1.567.1.479-.075 1.473-.6 1.68-1.188.213-.587.213-1.075.15-1.187-.061-.113-.225-.175-.475-.288m-4.538 6.203h-.014c-1.475 0-2.936-.4-4.212-1.15l-.3-.178-3.125.812.837-3.037-.199-.313c-.825-1.313-1.263-2.826-1.263-4.383 0-4.538 3.712-8.238 8.285-8.238 2.212 0 4.287.863 5.85 2.425 1.563 1.55 2.425 3.625 2.425 5.825-.003 4.537-3.717 8.238-8.28 8.238M19.1 4.874C17.2 3.038 14.7 2 12.037 2c-5.485 0-9.95 4.445-9.953 9.91 0 1.748.458 3.45 1.33 4.955L2 22l5.28-1.377c1.454.786 3.09 1.204 4.757 1.206h.005c5.488 0 9.955-4.447 9.958-9.913 0-2.647-1.033-5.138-2.913-7.01" transform="translate(-2 -2)"/>
    </g>
</svg>
