<svg width="240" height="180" viewBox="0 0 240 180" fill="none" xmlns="http://www.w3.org/2000/svg">
<path fill-rule="evenodd" clip-rule="evenodd" d="M176.406 115.388L101.562 210.154C95.7812 217.498 86.4062 212.732 89.7656 203.748L112.734 142.029H67.6562C64.0625 142.029 61.4062 139.529 61.4062 136.091C61.4062 134.138 62.1875 132.42 63.5938 130.623L138.438 35.779C144.219 28.4352 153.516 33.2009 150.234 42.1852L127.266 103.982H172.344C175.938 103.982 178.594 106.482 178.594 109.92C178.594 111.795 177.812 113.513 176.406 115.388ZM133.594 128.594L112.734 173.516L155.312 117.422H106.406L127.188 72.4219L84.6875 128.594H133.594Z" fill="#FF2772"/>
</svg>
