<svg width="240" height="180" viewBox="0 0 240 180" fill="none" xmlns="http://www.w3.org/2000/svg">
<path fill-rule="evenodd" clip-rule="evenodd" d="M141.875 193.672C140.312 200.234 134.844 204.531 127.891 204.531H112.031C105.156 204.531 99.6875 200.234 98.125 193.672L95.0781 180.625L93.4375 180L82.0312 187.031C76.25 190.625 69.2969 189.688 64.5312 184.766L53.5156 173.828C48.5938 168.828 47.7344 162.031 51.3281 156.328L58.3594 145L57.8125 143.438L44.7656 140.312C38.2812 138.75 33.9844 133.281 33.9844 126.406V111.094C33.9844 104.297 38.2031 98.8281 44.7656 97.1875L57.6562 93.9844L58.3594 92.3438L51.25 81.0156C47.6562 75.3906 48.5156 68.5938 53.4375 63.5156L64.4531 52.5C69.2188 47.6562 76.0938 46.7188 81.9531 50.3125L93.2812 57.2656L95.0781 56.5625L98.125 43.5156C99.6875 36.9531 105.156 32.6562 112.031 32.6562H127.891C134.844 32.6562 140.312 36.9531 141.875 43.5156L144.844 56.5625L146.641 57.2656L158.047 50.3125C163.828 46.7188 170.703 47.6562 175.547 52.5L186.484 63.5156C191.406 68.5938 192.344 75.3906 188.672 81.0156L181.641 92.3438L182.266 93.9844L195.156 97.1875C201.719 98.75 206.016 104.297 206.016 111.094V126.406C206.016 133.281 201.719 138.672 195.156 140.312L182.188 143.438L181.562 145L188.672 156.328C192.266 162.031 191.406 168.828 186.484 173.828L175.469 184.766C170.625 189.688 163.75 190.625 157.969 187.031L146.562 180L144.844 180.625L141.875 193.672ZM114.609 188.516H125.391C126.719 188.516 127.266 187.969 127.5 186.797L132.109 167.734C137.578 166.484 142.109 164.531 146.406 161.797L163.125 172.031C164.062 172.656 165 172.578 165.938 171.719L173.359 164.219C174.297 163.359 174.297 162.422 173.672 161.484L163.359 144.766C165.859 140.703 167.969 135.703 169.062 130.625L188.281 126.094C189.453 125.859 190 125.234 190 123.984V113.516C190 112.109 189.453 111.562 188.281 111.328L169.141 106.719C167.969 101.484 165.703 96.4062 163.516 92.5L173.75 75.8594C174.375 74.8438 174.375 73.9062 173.516 73.0469L166.016 65.625C165 64.7656 164.219 64.6875 163.125 65.3125L146.484 75.4688C142.266 72.9688 137.422 70.7812 132.109 69.6094L127.5 50.3906C127.266 49.2188 126.719 48.6719 125.391 48.6719H114.609C113.281 48.6719 112.656 49.2188 112.5 50.3906L107.891 69.4531C102.656 70.7812 97.1094 73.0469 93.4375 75.4688L76.7969 65.2344C75.7031 64.6094 74.8438 64.6875 73.9062 65.625L66.4062 72.9688C65.4688 73.8281 65.5469 74.7656 66.1719 75.8594L76.4844 92.5C74.2188 96.4062 71.9531 101.484 70.7812 106.797L51.7188 111.328C50.4688 111.562 49.9219 112.109 49.9219 113.516V123.984C49.9219 125.234 50.5469 125.859 51.7188 126.094L70.8594 130.625C71.9531 135.703 74.1406 140.625 76.5625 144.766L66.25 161.484C65.625 162.5 65.625 163.438 66.4844 164.297L73.9844 171.797C74.9219 172.656 75.8594 172.734 76.7969 172.109L93.5156 161.797C97.7344 164.531 102.734 166.562 107.891 167.734L112.5 186.797C112.656 187.969 113.281 188.516 114.609 188.516ZM120 148.203C136.172 148.203 149.453 134.844 149.453 118.594C149.453 102.422 136.172 89.2188 120 89.2188C103.75 89.2188 90.3906 102.422 90.3906 118.594C90.3906 134.844 103.75 148.203 120 148.203ZM105.078 118.594C105.078 126.875 111.797 133.594 120 133.594C128.047 133.594 134.766 126.797 134.766 118.594C134.766 110.547 128.047 103.75 120 103.75C111.875 103.75 105.078 110.469 105.078 118.594Z" fill="#5D2DE1"/>
</svg>
