<svg xmlns="http://www.w3.org/2000/svg" width="24" height="24" viewBox="0 0 24 24">
    <g fill="none" fill-rule="evenodd">
        <g>
            <g>
                <g>
                    <g>
                        <g>
                            <path d="M0 0H24V24H0z" transform="translate(-185 -1277) translate(0 193) translate(0 744) translate(165 320) translate(20 20)"/>
                            <path fill="#FD8B00" d="M12 2c5.523 0 10 4.477 10 10s-4.477 10-10 10S2 17.523 2 12 6.477 2 12 2zm2.317 10.487c-1.41.886-3.224.886-4.633 0-.472-.297-1.094-.155-1.39.317-.297.471-.155 1.093.316 1.39.622.39 1.298.668 1.998.828l-1.924 1.924c-.393.393-.393 1.031 0 1.425.198.197.455.295.713.295.259 0 .517-.098.713-.295l1.89-1.89 1.892 1.89c.393.394 1.03.394 1.424 0 .395-.394.395-1.032 0-1.425l-1.923-1.924c.7-.16 1.376-.437 1.998-.828.471-.297.613-.919.316-1.39-.296-.472-.919-.614-1.39-.317zm-2.316-7.154c-1.898 0-3.442 1.544-3.442 3.442 0 1.897 1.544 3.44 3.442 3.44 1.897 0 3.44-1.543 3.44-3.44 0-1.898-1.543-3.442-3.44-3.442zm0 2.017c.785 0 1.425.64 1.425 1.425s-.64 1.424-1.425 1.424-1.425-.64-1.425-1.424c0-.786.64-1.425 1.425-1.425z" transform="translate(-185 -1277) translate(0 193) translate(0 744) translate(165 320) translate(20 20)"/>
                        </g>
                    </g>
                </g>
            </g>
        </g>
    </g>
</svg>
