<svg width="579" height="591" viewBox="0 0 579 591" fill="none" xmlns="http://www.w3.org/2000/svg">
<path opacity="0.24" d="M27.6819 411.976L334.489 589.161C337.886 590.991 342.852 591.252 345.726 589.684L528.661 484.105C531.535 482.537 531.274 479.401 527.877 477.571L221.331 300.386C217.934 298.557 212.968 298.296 210.094 299.864L27.1593 405.443C24.0232 407.272 24.2846 410.147 27.6819 411.976Z" fill="#090D14"/>
<path d="M220.808 234.791L259.486 4.81676L256.35 3.51009L261.054 0.896741C261.838 0.374071 263.145 0.374067 264.713 1.15807L574.656 180.172C577.269 181.74 579.098 185.399 578.576 188.012L539.375 419.816C539.114 421.123 538.591 421.907 537.807 422.168L533.103 424.782L532.319 420.6H532.581L224.467 242.893C222.115 241.063 220.286 237.405 220.808 234.791Z" fill="#FF42E1"/>
<path d="M572.826 186.183L577.792 183.831C578.314 185.138 578.576 186.445 578.576 187.751L539.375 419.555C539.114 420.862 538.591 421.646 537.807 421.907L533.103 424.521L532.319 420.339H532.581L516.901 411.454L572.826 186.183Z" fill="#DA0EB9"/>
<path d="M219.763 245.506L529.706 424.521C532.058 425.827 534.149 425.043 534.672 422.691L573.872 190.887C574.394 188.274 572.304 184.615 569.952 183.047L259.747 3.77156C257.395 2.46489 255.305 3.24888 254.782 5.6009L215.582 237.405C215.32 240.28 217.411 243.938 219.763 245.506Z" fill="url(#paint0_linear_103_419)"/>
<path d="M219.763 245.506L529.706 424.521C532.058 425.827 534.149 425.043 534.672 422.691L573.872 190.887C574.394 188.274 572.304 184.615 569.952 183.047L259.747 3.77156C257.395 2.46489 255.305 3.24888 254.782 5.6009L215.582 237.405C215.32 240.28 217.411 243.938 219.763 245.506Z" fill="url(#paint1_linear_103_419)"/>
<path d="M260.27 16.5771L566.293 193.239L529.445 411.715L223.422 235.053L260.27 16.5771Z" fill="url(#paint2_linear_103_419)"/>
<path d="M25.0686 355.267L42.0554 364.152L211.662 266.152C214.536 264.584 219.502 264.845 222.638 266.675L515.071 435.497C517.946 433.929 530.751 427.918 530.751 427.918L524.479 444.121C524.218 444.905 523.695 445.428 522.65 445.95L344.158 549.178C341.284 550.746 336.318 550.484 333.182 548.655L33.954 375.913C32.6473 375.129 31.8633 374.083 31.3407 373.299L25.0686 355.267Z" fill="url(#paint3_linear_103_419)"/>
<g filter="url(#filter0_ddd_103_419)">
<path d="M27.6818 357.88L334.489 535.065C337.886 536.895 342.852 537.156 345.726 535.588L528.661 430.009C531.535 428.441 531.274 425.305 527.877 423.475L221.07 246.29C217.672 244.461 212.707 244.2 209.832 245.768L26.8978 351.347C24.0231 353.176 24.2845 356.051 27.6818 357.88Z" fill="url(#paint4_linear_103_419)"/>
</g>
<path d="M27.6819 355.006L334.489 532.191C337.886 534.02 342.852 534.281 345.726 532.713L528.661 427.134C529.445 426.611 529.967 426.35 530.229 425.827C531.013 427.395 530.751 428.963 528.661 430.27L345.726 535.849C342.852 537.417 337.625 537.417 334.489 535.327L27.6819 357.88C25.0686 356.312 24.2846 354.222 25.3299 352.654C25.8526 353.438 26.6366 354.222 27.6819 355.006Z" fill="#FF42E1"/>
<g opacity="0.4">
<path d="M213.752 286.013L435.364 413.806L445.034 408.318L223.683 280.264L213.752 286.013Z" fill="white"/>
<path d="M189.71 300.125L397.471 419.816L407.14 414.328L199.64 294.376L189.71 300.125Z" fill="white"/>
<path d="M174.029 309.011L418.378 450.132L428.308 444.644L183.96 303.523L174.029 309.011Z" fill="white"/>
<path d="M158.349 318.157L402.697 459.278L412.628 453.529L168.019 312.408L158.349 318.157Z" fill="white"/>
<path d="M142.669 327.304L387.017 468.424L396.948 462.675L152.339 321.554L142.669 327.304Z" fill="white"/>
<path d="M448.692 421.646L458.362 427.395L468.292 421.646L458.362 415.896L448.692 421.646Z" fill="white"/>
<path d="M413.935 429.486L434.319 441.246L444.25 435.497L423.865 423.737L413.935 429.486Z" fill="white"/>
</g>
<path opacity="0.5" d="M285.619 81.6493L305.742 93.4094L306.526 90.012L286.142 78.252L285.619 81.6493Z" fill="white"/>
<path opacity="0.5" d="M309.139 95.2389L320.116 101.772L320.638 98.1136L309.662 91.8416L309.139 95.2389Z" fill="white"/>
<path opacity="0.5" d="M337.364 111.703L345.204 116.146L345.726 112.748L337.886 108.044L337.364 111.703Z" fill="white"/>
<path opacity="0.5" d="M331.353 108.305L334.228 109.873L334.75 106.214L332.137 104.646L331.353 108.305Z" fill="white"/>
<path opacity="0.5" d="M323.513 103.601L328.478 106.476L329.001 102.817L324.036 100.204L323.513 103.601Z" fill="white"/>
<path opacity="0.5" d="M301.561 108.567L309.662 113.271L310.185 109.612L302.345 105.169L301.561 108.567Z" fill="white"/>
<path opacity="0.5" d="M283.006 97.852L298.425 106.737L299.209 103.34L283.529 94.1934L283.006 97.852Z" fill="white"/>
<g opacity="0.5">
<path opacity="0.5" d="M305.219 154.823L320.9 163.708L321.422 160.311L306.003 151.164L305.219 154.823Z" fill="white"/>
<path opacity="0.5" d="M297.379 150.119L302.345 152.994L302.867 149.335L297.902 146.721L297.379 150.119Z" fill="white"/>
</g>
<path opacity="0.5" d="M307.833 138.62L323.513 147.767L324.036 144.108L308.617 135.223L307.833 138.62Z" fill="white"/>
<path opacity="0.5" d="M299.993 133.916L304.958 136.791L305.481 133.393L300.516 130.519L299.993 133.916Z" fill="white"/>
<path opacity="0.5" d="M293.721 224.076L264.451 207.09L263.667 210.748L293.198 227.735L293.721 224.076Z" fill="white"/>
<path opacity="0.5" d="M304.174 230.087L296.857 225.906L296.334 229.303L303.651 233.746L304.174 230.087Z" fill="white"/>
<path opacity="0.5" d="M355.918 233.485L326.388 216.498L325.865 219.895L355.396 237.144L355.918 233.485Z" fill="white"/>
<path opacity="0.5" d="M366.372 239.496L359.054 235.314L358.532 238.712L365.588 243.154L366.372 239.496Z" fill="white"/>
<path opacity="0.5" d="M273.598 203.693L265.758 198.989L265.235 202.647L273.075 207.09L273.598 203.693Z" fill="white"/>
<path opacity="0.5" d="M322.206 214.146L314.366 209.442L313.582 213.101L321.684 217.543L322.206 214.146Z" fill="white"/>
<path opacity="0.5" d="M292.414 214.407L276.734 205.522L276.211 208.919L291.891 218.066L292.414 214.407Z" fill="white"/>
<path opacity="0.5" d="M300.516 219.111L295.55 216.237L295.028 219.895L299.732 222.77L300.516 219.111Z" fill="white"/>
<path opacity="0.5" d="M319.332 230.087L303.651 220.941L303.129 224.599L318.809 233.485L319.332 230.087Z" fill="white"/>
<path opacity="0.5" d="M327.433 234.792L322.468 231.917L321.684 235.314L326.649 238.189L327.433 234.792Z" fill="white"/>
<path opacity="0.5" d="M320.9 222.247L312.798 217.543L312.276 220.941L320.377 225.645L320.9 222.247Z" fill="white"/>
<path opacity="0.5" d="M339.454 232.962L324.036 223.815L323.252 227.474L338.932 236.359L339.454 232.962Z" fill="white"/>
<path opacity="0.5" d="M347.556 237.666L342.59 234.791L342.068 238.189L347.033 241.063L347.556 237.666Z" fill="white"/>
<path opacity="0.5" d="M283.267 200.556L267.065 191.148L266.542 194.546L282.745 203.954L283.267 200.556Z" fill="white"/>
<path opacity="0.5" d="M298.163 209.181L286.403 202.386L285.881 205.784L297.641 212.578L298.163 209.181Z" fill="white"/>
<path opacity="0.5" d="M309.401 215.453L301.299 211.01L300.777 214.407L308.878 219.111L309.401 215.453Z" fill="white"/>
<path opacity="0.5" d="M386.756 251.255L370.292 241.847L369.769 245.245L386.233 254.914L386.756 251.255Z" fill="white"/>
<path opacity="0.5" d="M401.652 259.88L389.892 253.085L389.108 256.482L401.129 263.277L401.652 259.88Z" fill="white"/>
<path opacity="0.5" d="M412.628 266.152L404.788 261.709L404.004 265.106L412.105 269.81L412.628 266.152Z" fill="white"/>
<path opacity="0.5" d="M380.223 145.154L396.687 154.562L397.209 151.164L381.007 141.756L380.223 145.154Z" fill="white"/>
<path opacity="0.5" d="M365.326 136.529L377.348 143.585L377.871 139.927L366.111 133.132L365.326 136.529Z" fill="white"/>
<path opacity="0.5" d="M354.35 130.258L362.452 134.962L362.974 131.303L354.873 126.86L354.35 130.258Z" fill="white"/>
<path opacity="0.5" d="M374.996 133.394L391.199 142.802L391.721 139.143L375.519 129.735L374.996 133.394Z" fill="white"/>
<path opacity="0.5" d="M360.1 124.77L371.86 131.564L372.383 127.906L360.622 121.111L360.1 124.77Z" fill="white"/>
<path opacity="0.5" d="M348.862 118.236L356.964 122.94L357.486 119.281L349.646 114.839L348.862 118.236Z" fill="white"/>
<path opacity="0.5" d="M308.878 148.028L314.628 151.426L315.15 147.767L309.662 144.631L308.878 148.028Z" fill="white"/>
<path opacity="0.5" d="M298.686 142.017L306.004 146.46L306.526 142.801L299.209 138.62L298.686 142.017Z" fill="white"/>
<path opacity="0.5" d="M284.835 192.455L268.633 183.047L267.849 186.706L284.313 196.114L284.835 192.455Z" fill="white"/>
<path opacity="0.5" d="M299.731 201.079L287.971 194.285L287.449 197.943L299.209 204.738L299.731 201.079Z" fill="white"/>
<path opacity="0.5" d="M310.707 207.612L302.867 202.908L302.345 206.306L310.185 211.01L310.707 207.612Z" fill="white"/>
<path opacity="0.5" d="M275.427 178.343L269.939 174.946L269.155 178.604L274.905 181.74L275.427 178.343Z" fill="white"/>
<path opacity="0.5" d="M285.881 184.354L278.563 179.911L277.779 183.57L285.097 187.751L285.881 184.354Z" fill="white"/>
<path opacity="0.5" d="M300.516 192.716L288.755 185.922L288.233 189.58L299.993 196.375L300.516 192.716Z" fill="white"/>
<path opacity="0.5" d="M316.457 126.076L321.945 129.212L322.729 125.554L316.98 122.417L316.457 126.076Z" fill="white"/>
<path opacity="0.5" d="M306.004 120.065L313.321 124.247L314.105 120.588L306.787 116.407L306.004 120.065Z" fill="white"/>
<path opacity="0.5" d="M291.369 111.442L303.129 118.236L303.651 114.578L291.891 108.044L291.369 111.442Z" fill="white"/>
<path opacity="0.5" d="M324.82 139.143L336.58 145.676L337.102 142.279L325.604 135.484L324.82 139.143Z" fill="white"/>
<path opacity="0.5" d="M305.742 128.689L321.422 137.575L322.206 134.177L306.265 125.031L305.742 128.689Z" fill="white"/>
<path opacity="0.5" d="M297.641 123.986L302.606 126.86L303.129 123.202L298.163 120.327L297.641 123.986Z" fill="white"/>
<path opacity="0.5" d="M290.062 119.543L294.766 122.417L295.55 118.759L290.585 115.884L290.062 119.543Z" fill="white"/>
<g opacity="0.5">
<path opacity="0.5" d="M291.107 164.754L306.526 173.9L307.31 170.242L291.63 161.356L291.107 164.754Z" fill="white"/>
<path opacity="0.5" d="M283.006 160.05L287.971 162.925L288.494 159.527L283.529 156.653L283.006 160.05Z" fill="white"/>
<path opacity="0.5" d="M292.153 174.162L297.641 177.298L298.163 173.9L292.675 170.764L292.153 174.162Z" fill="white"/>
<path opacity="0.5" d="M311.492 167.89L316.98 171.026L317.764 167.367L312.014 164.231L311.492 167.89Z" fill="white"/>
<path opacity="0.5" d="M319.332 172.333L332.66 179.911L333.182 176.514L320.116 168.935L319.332 172.333Z" fill="white"/>
<path opacity="0.5" d="M335.012 181.218L342.852 185.922L343.374 182.263L335.534 177.821L335.012 181.218Z" fill="white"/>
<path opacity="0.5" d="M281.699 168.151L289.017 172.332L289.539 168.935L282.222 164.753L281.699 168.151Z" fill="white"/>
<g opacity="0.5">
<path opacity="0.5" d="M280.915 176.514L286.665 179.65L287.187 176.253L281.699 172.855L280.915 176.514Z" fill="white"/>
<path opacity="0.5" d="M270.723 170.503L278.041 174.684L278.563 171.287L271.246 167.106L270.723 170.503Z" fill="white"/>
</g>
<path opacity="0.5" d="M303.651 163.186L308.617 166.06L309.139 162.663L304.174 159.788L303.651 163.186Z" fill="white"/>
<path opacity="0.5" d="M295.811 158.743L300.777 161.618L301.299 157.959L296.334 155.345L295.811 158.743Z" fill="white"/>
</g>
<path opacity="0.5" d="M333.966 118.497L350.692 128.167L351.214 124.508L334.489 114.839L333.966 118.497Z" fill="white"/>
<path opacity="0.5" d="M314.889 107.521L330.83 116.668L331.353 113.01L315.411 103.863L314.889 107.521Z" fill="white"/>
<path opacity="0.5" d="M306.787 102.817L311.753 105.692L312.537 102.295L307.571 99.4199L306.787 102.817Z" fill="white"/>
<path opacity="0.5" d="M299.209 98.3744L304.174 101.249L304.697 97.5904L299.731 94.9771L299.209 98.3744Z" fill="white"/>
<path opacity="0.5" d="M295.027 96.0227L284.313 89.7506L284.835 86.3533L295.55 92.364L295.027 96.0227Z" fill="white"/>
<defs>
<filter id="filter0_ddd_103_419" x="0.921478" y="236.738" width="553.716" height="339.879" filterUnits="userSpaceOnUse" color-interpolation-filters="sRGB">
<feFlood flood-opacity="0" result="BackgroundImageFix"/>
<feColorMatrix in="SourceAlpha" type="matrix" values="0 0 0 0 0 0 0 0 0 0 0 0 0 0 0 0 0 0 127 0" result="hardAlpha"/>
<feMorphology radius="4" operator="erode" in="SourceAlpha" result="effect1_dropShadow_103_419"/>
<feOffset dy="8"/>
<feGaussianBlur stdDeviation="4"/>
<feColorMatrix type="matrix" values="0 0 0 0 0.611765 0 0 0 0 0.258824 0 0 0 0 0.960784 0 0 0 0.12 0"/>
<feBlend mode="normal" in2="BackgroundImageFix" result="effect1_dropShadow_103_419"/>
<feColorMatrix in="SourceAlpha" type="matrix" values="0 0 0 0 0 0 0 0 0 0 0 0 0 0 0 0 0 0 127 0" result="hardAlpha"/>
<feOffset dy="16"/>
<feGaussianBlur stdDeviation="12"/>
<feColorMatrix type="matrix" values="0 0 0 0 0.611765 0 0 0 0 0.258824 0 0 0 0 0.960784 0 0 0 0.24 0"/>
<feBlend mode="normal" in2="effect1_dropShadow_103_419" result="effect2_dropShadow_103_419"/>
<feColorMatrix in="SourceAlpha" type="matrix" values="0 0 0 0 0 0 0 0 0 0 0 0 0 0 0 0 0 0 127 0" result="hardAlpha"/>
<feOffset/>
<feGaussianBlur stdDeviation="0.5"/>
<feColorMatrix type="matrix" values="0 0 0 0 0.611765 0 0 0 0 0.258824 0 0 0 0 0.960784 0 0 0 0.24 0"/>
<feBlend mode="normal" in2="effect2_dropShadow_103_419" result="effect3_dropShadow_103_419"/>
<feBlend mode="normal" in="SourceGraphic" in2="effect3_dropShadow_103_419" result="shape"/>
</filter>
<linearGradient id="paint0_linear_103_419" x1="573.752" y1="214.029" x2="215.78" y2="214.029" gradientUnits="userSpaceOnUse">
<stop stop-color="#2573BA"/>
<stop offset="1" stop-color="#0063AD"/>
</linearGradient>
<linearGradient id="paint1_linear_103_419" x1="573.752" y1="214.029" x2="215.78" y2="214.029" gradientUnits="userSpaceOnUse">
<stop stop-color="#2C75E4"/>
<stop offset="0.0448236" stop-color="#3461D5"/>
<stop offset="0.1323" stop-color="#4140BB"/>
<stop offset="0.2225" stop-color="#4B27A7"/>
<stop offset="0.3154" stop-color="#521499"/>
<stop offset="0.4127" stop-color="#570A91"/>
<stop offset="0.5215" stop-color="#58068E"/>
<stop offset="0.6592" stop-color="#5B078F"/>
<stop offset="0.7607" stop-color="#640A92"/>
<stop offset="0.8506" stop-color="#740F98"/>
<stop offset="0.9332" stop-color="#8B17A0"/>
<stop offset="1" stop-color="#A31FA9"/>
</linearGradient>
<linearGradient id="paint2_linear_103_419" x1="566.398" y1="214.073" x2="223.483" y2="214.073" gradientUnits="userSpaceOnUse">
<stop stop-color="#9C42F5"/>
<stop offset="0.992708" stop-color="#5995EF"/>
</linearGradient>
<linearGradient id="paint3_linear_103_419" x1="530.654" y1="407.469" x2="25.0793" y2="407.469" gradientUnits="userSpaceOnUse">
<stop stop-color="#2C75E4"/>
<stop offset="0.0448236" stop-color="#3461D5"/>
<stop offset="0.1323" stop-color="#4140BB"/>
<stop offset="0.2225" stop-color="#4B27A7"/>
<stop offset="0.3154" stop-color="#521499"/>
<stop offset="0.4127" stop-color="#570A91"/>
<stop offset="0.5215" stop-color="#58068E"/>
<stop offset="0.6592" stop-color="#5B078F"/>
<stop offset="0.7607" stop-color="#640A92"/>
<stop offset="0.8506" stop-color="#740F98"/>
<stop offset="0.9332" stop-color="#8B17A0"/>
<stop offset="1" stop-color="#A31FA9"/>
</linearGradient>
<linearGradient id="paint4_linear_103_419" x1="-227.936" y1="390.678" x2="24.7973" y2="828.569" gradientUnits="userSpaceOnUse">
<stop offset="0.315625" stop-color="#FF2772"/>
<stop offset="0.596875" stop-color="#9C42F5"/>
<stop offset="1" stop-color="#5D2DE1"/>
</linearGradient>
</defs>
</svg>
