<svg xmlns="http://www.w3.org/2000/svg" width="32" height="32" viewBox="0 0 32 32">
    <defs>
        <linearGradient id="vq6lflsska" x1="12.769%" x2="90.068%" y1="-12.937%" y2="113.695%">
            <stop offset="0%" stop-color="#FCC203"/>
            <stop offset="42.324%" stop-color="#F5A10E"/>
            <stop offset="100%" stop-color="#E63622"/>
        </linearGradient>
    </defs>
    <g fill="none" fill-rule="evenodd">
        <g>
            <g>
                <g>
                    <path d="M0 0L32 0 32 32 0 32z" transform="translate(-1197 -458) translate(925 456) translate(272 2)"/>
                    <path fill="url(#vq6lflsska)" d="M22.787 6.08c-.934-1.373-2-2.653-3.2-3.8-.467-.453-1.254-.027-1.12.613.253 1.254.52 2.907.52 4.387 0 2.747-1.8 4.973-4.547 4.973-2.053 0-3.733-1.24-4.467-3.013-.133-.267-.186-.427-.266-.72-.147-.56-.88-.733-1.2-.24-.24.36-.467.72-.68 1.107-1.587 2.72-2.494 5.893-2.494 9.28 0 5.893 4.774 10.666 10.667 10.666s10.667-4.773 10.667-10.666c0-4.654-1.44-8.974-3.88-12.587zm-7.174 19.253c-2.373 0-4.293-1.866-4.293-4.186 0-2.16 1.4-3.68 3.747-4.16 1.96-.4 3.973-1.24 5.373-2.56.373-.347.987-.187 1.093.306.307 1.36.467 2.774.467 4.2.013 3.534-2.853 6.4-6.387 6.4z" transform="translate(-1197 -458) translate(925 456) translate(272 2)"/>
                </g>
            </g>
        </g>
    </g>
</svg>
